<svg xmlns="http://www.w3.org/2000/svg" xmlns:xlink="http://www.w3.org/1999/xlink" width="175.024" height="138.717" viewBox="0 0 175.024 138.717">
  <defs>
    <linearGradient id="linear-gradient" x1="0.5" y1="1" x2="0.5" gradientUnits="objectBoundingBox">
      <stop offset="0" stop-color="gray" stop-opacity="0.251"/>
      <stop offset="0.54" stop-color="gray" stop-opacity="0.122"/>
      <stop offset="1" stop-color="gray" stop-opacity="0.102"/>
    </linearGradient>
  </defs>
  <g id="undraw_analysis_4jis" transform="translate(0 -8.046)">
    <ellipse id="Ellipse_69" data-name="Ellipse 69" cx="30.098" cy="5.129" rx="30.098" ry="5.129" transform="translate(0 136.506)" fill="#0085ca" opacity="0.1"/>
    <ellipse id="Ellipse_70" data-name="Ellipse 70" cx="30.098" cy="5.129" rx="30.098" ry="5.129" transform="translate(114.829 135.292)" fill="#0085ca" opacity="0.1"/>
    <path id="Path_199" data-name="Path 199" d="M186.45,803.939c-.039.612-.723.65-.723.65-2,.315-2.425,1.094-2.425,1.094a6.468,6.468,0,0,1-4.814,1.638c-2.461-.236-2.223-.684-2.1-1.488a2.91,2.91,0,0,0,.039-.458c0-1.112.855-1.428,2.187-2.261s1.3-1.539,1.852-2.15a3.393,3.393,0,0,0,.612-1.8c.629-1.094,2.223.171,2.223.171.074.388,2.445.342,2.445.342a5.275,5.275,0,0,0,.475,1.334,6.6,6.6,0,0,1,.219,1.881C186.461,803.325,186.462,803.73,186.45,803.939Z" transform="translate(-161.262 -663.965)" fill="#b07473"/>
    <path id="Path_200" data-name="Path 200" d="M186.45,824.064c-.039.612-.723.65-.723.65-2,.315-2.425,1.094-2.425,1.094a6.469,6.469,0,0,1-4.814,1.638c-2.461-.236-2.223-.684-2.1-1.488,1.1.274,3.2.653,4.431-.014,1.71-.927,2.929-1.575,2.929-1.575l2.69-1.37C186.461,823.45,186.462,823.855,186.45,824.064Z" transform="translate(-161.262 -684.09)" opacity="0.1"/>
    <path id="Path_201" data-name="Path 201" d="M273.992,810.54a1.074,1.074,0,0,1-.616.513.245.245,0,0,1-.048.012,37.792,37.792,0,0,1-3.966.171s-3.193-2.473-4.15-2.529a2.046,2.046,0,0,1-1.483-.889s.019-.575.08-1.242a4.737,4.737,0,0,1,.438-1.946c.428-.445.513-1.055,1.483-.667,0,0,1.368-2.413,2.982-.549l1.669,2.533s.315,1.055,2.428,2.186a2.318,2.318,0,0,1,1.329,1.474A1.3,1.3,0,0,1,273.992,810.54Z" transform="translate(-233.724 -667.267)" fill="#b07473"/>
    <path id="Path_202" data-name="Path 202" d="M273.992,829.294c-.188.159-.4.33-.616.513a.245.245,0,0,1-.048.012,37.791,37.791,0,0,1-3.966.171s-3.193-2.473-4.15-2.529a2.046,2.046,0,0,1-1.483-.889s.019-.575.08-1.242a6.936,6.936,0,0,1,2.866,1.368,11.948,11.948,0,0,0,2.466,2.037s3.46-.332,5-.378a1.3,1.3,0,0,1-.147.937Z" transform="translate(-233.724 -686.021)" opacity="0.1"/>
    <path id="Path_217" data-name="Path 217" d="M239.93,598.12a15.163,15.163,0,0,0,6.127,1.927Z" transform="translate(-213.994 -497.667)" opacity="0.1"/>
    <path id="Path_218" data-name="Path 218" d="M206.27,619.79s2.223,2.791,3.237,2.866S206.27,619.79,206.27,619.79Z" transform="translate(-186.091 -515.631)" opacity="0.1"/>
    <path id="Path_219" data-name="Path 219" d="M211.463,683.79c-.1.05-1.26,2.519-2.445,2.594S211.463,683.79,211.463,683.79Z" transform="translate(-188.171 -568.686)" opacity="0.1"/>
    <path id="Path_220" data-name="Path 220" d="M284.72,715.068s2.2-.492,2.692,1.088C287.412,716.156,287.265,715.661,284.72,715.068Z" transform="translate(-251.125 -594.555)" opacity="0.1"/>
    <path id="Path_221" data-name="Path 221" d="M276.05,767.369s2.668-.544,3.236.2S276.05,767.369,276.05,767.369Z" transform="translate(-243.938 -637.813)" opacity="0.1"/>
    <path id="Path_222" data-name="Path 222" d="M219.225,775.67c0,.024-2.717.544-2.61.889s2.9.3,3-.248a.513.513,0,0,0-.386-.641Z" transform="translate(-194.664 -644.854)" opacity="0.1"/>
    <path id="Path_223" data-name="Path 223" d="M270.85,788.631s4.463-.544,4.183.4S270.85,788.631,270.85,788.631Z" transform="translate(-239.627 -655.468)" opacity="0.1"/>
    <path id="Path_229" data-name="Path 229" d="M216.61,815.58s.869,1.112.646,1.741S216.61,815.58,216.61,815.58Z" transform="translate(-194.662 -677.939)" opacity="0.1"/>
    <path id="Path_230" data-name="Path 230" d="M285.68,824.44s.193-1.491.971-1.5a2.615,2.615,0,0,1,1.409.147c.593.227,1.149.583.973.638s-1.026-.855-1.881-.392A6.228,6.228,0,0,0,285.68,824.44Z" transform="translate(-251.921 -684.019)" opacity="0.1"/>
    <ellipse id="Ellipse_83" data-name="Ellipse 83" cx="7.011" cy="0.963" rx="7.011" ry="0.963" transform="translate(158.566 132.785)" fill="#0085ca" opacity="0.1"/>
    <ellipse id="Ellipse_84" data-name="Ellipse 84" cx="4.983" cy="0.684" rx="4.983" ry="0.684" transform="translate(105.63 142.098)" fill="#0085ca" opacity="0.1"/>
    <ellipse id="Ellipse_85" data-name="Ellipse 85" cx="4.983" cy="0.684" rx="4.983" ry="0.684" transform="translate(61.041 137.028)" fill="#0085ca" opacity="0.1"/>
    <path id="Path_243" data-name="Path 243" d="M459.574,791.529a1.991,1.991,0,0,0,.655-.99.878.878,0,0,0-.458-1.007c-.421-.161-.87.132-1.211.426a1.616,1.616,0,0,1-1.176.568,1.8,1.8,0,0,0,.554-1.678.72.72,0,0,0-.154-.342c-.234-.25-.658-.142-.937.055a3.487,3.487,0,0,0-1.142,2.919,5.6,5.6,0,0,1-.017-1.2,1.232,1.232,0,0,0-.451-1.064,1.369,1.369,0,0,0-.684-.171,1.421,1.421,0,0,0-1.117.318,1.1,1.1,0,0,0,.043,1.368,4.358,4.358,0,0,0,1.158.927,2.566,2.566,0,0,1,.826.788.719.719,0,0,1,.062.142h2.507A7.055,7.055,0,0,0,459.574,791.529Z" transform="translate(-390.805 -655.373)" fill="#0085ca"/>
    <path id="Path_244" data-name="Path 244" d="M1042.33,770.429a2,2,0,0,0,.662-.99.883.883,0,0,0-.458-1.007c-.421-.161-.87.132-1.211.426a1.616,1.616,0,0,1-1.178.568,1.787,1.787,0,0,0,.554-1.677.684.684,0,0,0-.154-.342c-.233-.25-.657-.142-.935.055a3.487,3.487,0,0,0-1.142,2.919,5.487,5.487,0,0,1-.017-1.2,1.236,1.236,0,0,0-.452-1.064,1.369,1.369,0,0,0-.684-.171,1.424,1.424,0,0,0-1.118.318,1.1,1.1,0,0,0,.044,1.368,4.385,4.385,0,0,0,1.158.927,2.563,2.563,0,0,1,.826.788.826.826,0,0,1,.062.142h2.505A7.024,7.024,0,0,0,1042.33,770.429Z" transform="translate(-873.908 -637.882)" fill="#0085ca"/>
    <path id="Path_245" data-name="Path 245" d="M712.175,817.179a2.006,2.006,0,0,0,.657-.99.886.886,0,0,0-.458-1.007,1.284,1.284,0,0,0-1.211.426,1.617,1.617,0,0,1-1.178.568,1.791,1.791,0,0,0,.554-1.678.7.7,0,0,0-.154-.342c-.234-.25-.657-.142-.937.055a3.491,3.491,0,0,0-1.142,2.921,5.494,5.494,0,0,1-.015-1.2,1.231,1.231,0,0,0-.451-1.064,1.38,1.38,0,0,0-.684-.171,1.431,1.431,0,0,0-1.118.318,1.1,1.1,0,0,0,.044,1.368,4.472,4.472,0,0,0,1.156.927,2.566,2.566,0,0,1,.834.8.869.869,0,0,1,.062.14h2.5A6.966,6.966,0,0,0,712.175,817.179Z" transform="translate(-600.209 -676.637)" fill="#0085ca"/>
    <path id="Path_247" data-name="Path 247" d="M825.664,774.95l-.239,4.5-1.515-.378-.32-1.874Z" transform="translate(-682.747 -638.942)" fill="#a27772"/>
    <path id="Path_248" data-name="Path 248" d="M825.664,774.95l-.239,4.5-1.515-.378-.32-1.874Z" transform="translate(-682.747 -638.942)" opacity="0.1"/>
    <path id="Path_249" data-name="Path 249" d="M956.51,696.534l2.312.479,1.71-1.515v-4.267l.038-.583v-.017h0l.009-.123.311-4.737s2.312-7.9,2.671-9.406a35.746,35.746,0,0,0,.065-6.112c-.034-.735-.065-1.226-.065-1.226l-5.1-1.236-.108,3.933-.373,13.749a7.581,7.581,0,0,1-.523,2.557l-.017.046a11.165,11.165,0,0,0-.74,3.6l-.171,4.369v.121Z" transform="translate(-808.032 -555.422)" fill="#cc818c"/>
    <path id="Path_250" data-name="Path 250" d="M980.29,800.632v.121h0l.008-.123Z" transform="translate(-827.745 -665.545)" opacity="0.1"/>
    <path id="Path_251" data-name="Path 251" d="M956.51,829.089l2.312.479,1.71-1.515v-.363a.486.486,0,0,1-.246.392l-.024.014a4.6,4.6,0,0,1-2.6.513l-.9-.077a.953.953,0,0,0-.238.058v.121Z" transform="translate(-808.032 -687.978)" opacity="0.1"/>
    <path id="Path_252" data-name="Path 252" d="M956.495,806.212l.024-.014a.484.484,0,0,0,.248-.424l.038-4.593s.5-.354.38,1.26-.2,4.027-.2,4.027a2.565,2.565,0,0,1-2.531,2.632s-2.512.477-2.493-.958S953,806.648,953,806.648l.9.079a4.617,4.617,0,0,0,2.6-.515Z" transform="translate(-804.259 -665.974)" fill="#b07473"/>
    <path id="Path_253" data-name="Path 253" d="M886.088,702.819c.06,1.036,3.109.438,3.109.438l2.052-3.986s1.71-1.317.855-2.473a1.747,1.747,0,0,1-.127-.2v-.01h0c-.019-.031-.034-.062-.051-.094h0a6.561,6.561,0,0,1-.313-3.223s.8-5.814,1.077-7.354a53.775,53.775,0,0,0,.05-6.632c-.026-.826-.05-1.384-.05-1.384l-5.065-1.354v1.51c-.01,1.248-.048,3-.171,4.132-.219,1.934.559,8.333.559,8.333l.268,5.824a5.4,5.4,0,0,1-.672,2.827,13.622,13.622,0,0,0-1.522,3.524A.681.681,0,0,0,886.088,702.819Z" transform="translate(-749.65 -562.684)" fill="#cc818c"/>
    <path id="Path_254" data-name="Path 254" d="M886.1,800.018c.06,1.036,3.109.438,3.109.438l2.052-3.986s1.71-1.317.855-2.473a1.745,1.745,0,0,1-.127-.2,9.878,9.878,0,0,1-.684,2.11s-1.695,3.391-2.223,4.167-2.881-.144-2.969-.171A.68.68,0,0,0,886.1,800.018Z" transform="translate(-749.662 -659.883)" opacity="0.1"/>
    <path id="Path_255" data-name="Path 255" d="M884.576,793.144s1-.233.7,2.379h0a1.685,1.685,0,0,1-.8,1.493,5.7,5.7,0,0,0-2.384,3.307h0a1.806,1.806,0,0,1-1.392,1.76,6.538,6.538,0,0,1-2.687.214c-1.216-.342-.684-1.175-.684-1.175l1.4-1.655s2.432.958,2.97.18,2.223-4.168,2.223-4.168S884.88,793.363,884.576,793.144Z" transform="translate(-742.303 -659.335)" fill="#b07473"/>
    <path id="Path_256" data-name="Path 256" d="M967.418,670.56l-.108,3.933a5.062,5.062,0,0,0,2.5-.575c.357-.556,1.664-.792,2.775-.888-.034-.735-.065-1.226-.065-1.226Z" transform="translate(-816.985 -557.719)" opacity="0.1"/>
    <path id="Path_257" data-name="Path 257" d="M895.06,680.82a1.893,1.893,0,0,1,.559-.674c.539-.3.481,1.914.481,1.914s1.787.017,4.077-.012c-.026-.828-.05-1.384-.05-1.384l-5.065-1.354S895.069,679.941,895.06,680.82Z" transform="translate(-757.09 -564.972)" opacity="0.1"/>
    <path id="Path_265" data-name="Path 265" d="M918.772,590a7.9,7.9,0,0,0-3.634,2.191c-.267.287-.513.6-.776.882a14.452,14.452,0,0,1-5.442,3.145" transform="translate(-768.58 -490.935)" opacity="0.1"/>
    <g id="undraw_questions_75e0" transform="translate(6.651 8.046)">
      <ellipse id="Ellipse_114" data-name="Ellipse 114" cx="15.923" cy="1.57" rx="15.923" ry="1.57" transform="translate(94.848 110.462)" fill="#0085ca" opacity="0.1"/>
      <path id="Path_501" data-name="Path 501" d="M166.281,37.645c7.013-2.607,15.55-.365,22.84,2.9,22.9,10.271,39.58,29.769,52.833,49.634,4.8,7.193,9.357,14.7,11.161,22.732,3.673,16.343-5.907,33.262-22.2,39.191a66.673,66.673,0,0,1-17.725,3.307c-10.841.821-22.066.5-32.82-2.546a103.973,103.973,0,0,1-21.883-9.532c-19.433-10.793-37.179-24.809-49.958-41.93-5.6-7.509-10.346-15.975-10.483-24.64s5.51-17.371,14.8-18.844c3.841-.609,7.9.025,11.867.677,5.836.961,11.751,1.972,17.52,1.553,5.96-.436,13.712-2.765,14.8-8.455C158.183,45.586,159.278,40.248,166.281,37.645Z" transform="translate(-98.044 -29.906)" fill="#0085ca" opacity="0.1"/>
      <path id="Path_502" data-name="Path 502" d="M341.287,800.367s7.492-.452,6.609,4.8a1.279,1.279,0,0,1-.666,1.349s-.012-.39-.768-.258a3.385,3.385,0,0,1-.814.04,1.7,1.7,0,0,1-1-.411h0s-2.107-.869-2.925-4.313c0,0-.607-.75-.582-.944l1.264.54a2.269,2.269,0,0,0-.092,1.67s.04-1.636.284-1.6c.048.008.657.31.657.31a3.737,3.737,0,0,0-.183,2.743s-.213-1.958.414-2.628l.891.52a3.923,3.923,0,0,0-.279,2.979s-.155-2.054.466-2.854l.807.621a3.843,3.843,0,0,0-.318,2.729s.064-2.392.492-2.573a4.84,4.84,0,0,1,.814.879s-.559,1.174-.213,1.793c0,0,.213-1.593.388-1.6a5.324,5.324,0,0,1,.776,1.779,3.842,3.842,0,0,0-.607-1.88,2.119,2.119,0,0,1,1.077.557s-.11-.747-1.25-.812a4.887,4.887,0,0,0-.737-.849,4.614,4.614,0,0,1,1.823.211,2.046,2.046,0,0,0-2.031-.385l-.8-.649a6.551,6.551,0,0,1,2.127.022,2.592,2.592,0,0,0-2.341-.169l-.866-.518a7.841,7.841,0,0,1,2.032-.175,3.12,3.12,0,0,0-2.287.036l-.621-.278s.931-.183,1.206-.213.287-.1.287-.1a3.233,3.233,0,0,0-1.753.194A7.2,7.2,0,0,1,341.287,800.367Z" transform="translate(-303.404 -697.317)" fill="#0085ca"/>
      <ellipse id="Ellipse_115" data-name="Ellipse 115" cx="5.303" cy="0.896" rx="5.303" ry="0.896" transform="translate(37.741 108.761)" fill="#0085ca" opacity="0.1"/>
      <path id="Path_503" data-name="Path 503" d="M276.961,777.64s4.224-.255,3.726,2.706a.719.719,0,0,1-.374.761s-.008-.219-.433-.144a1.881,1.881,0,0,1-.458.022.941.941,0,0,1-.562-.231h0a3.368,3.368,0,0,1-1.652-2.433s-.342-.424-.329-.533l.714.31a1.283,1.283,0,0,0-.053.942s.023-.924.155-.9c.028,0,.371.179.371.179a2.117,2.117,0,0,0-.1,1.553s-.121-1.1.233-1.483l.5.293a2.217,2.217,0,0,0-.155,1.68,3.153,3.153,0,0,1,.262-1.608l.455.354a2.132,2.132,0,0,0-.179,1.539s.036-1.349.278-1.45a2.765,2.765,0,0,1,.458.5s-.311.661-.12,1.011c0,0,.12-.9.219-.9a2.969,2.969,0,0,1,.436,1,2.173,2.173,0,0,0-.342-1.06,1.185,1.185,0,0,1,.607.31s-.061-.421-.7-.458a2.748,2.748,0,0,0-.415-.478,2.6,2.6,0,0,1,1.028.118,1.155,1.155,0,0,0-1.146-.217l-.449-.366a3.716,3.716,0,0,1,1.2.012,1.461,1.461,0,0,0-1.321-.095l-.487-.293a4.435,4.435,0,0,1,1.144-.1,1.753,1.753,0,0,0-1.289.02l-.349-.155s.526-.1.68-.12.163-.059.163-.059a1.83,1.83,0,0,0-.989.11A4.09,4.09,0,0,1,276.961,777.64Z" transform="translate(-249.114 -678.122)" fill="#0085ca"/>
      <ellipse id="Ellipse_116" data-name="Ellipse 116" cx="2.99" cy="0.506" rx="2.99" ry="0.506" transform="translate(27.766 102.735)" fill="#0085ca" opacity="0.1"/>
      <path id="Path_504" data-name="Path 504" d="M946.31,795.963s5.1-.31,4.5,3.26a.876.876,0,0,1-.453.919s-.009-.265-.523-.175a2.3,2.3,0,0,1-.554.026,1.141,1.141,0,0,1-.677-.28h0a4.043,4.043,0,0,1-1.992-2.936s-.413-.511-.4-.641l.86.366a1.547,1.547,0,0,0-.062,1.138s.028-1.115.193-1.087c.034,0,.447.214.447.214a2.539,2.539,0,0,0-.124,1.863s-.144-1.332.283-1.789l.605.352a2.673,2.673,0,0,0-.189,2.029,3.845,3.845,0,0,1,.31-1.942l.55.428a2.628,2.628,0,0,0-.217,1.863s.045-1.627.337-1.751a3.343,3.343,0,0,1,.553.6s-.38.8-.144,1.222c0,0,.144-1.087.264-1.087a3.607,3.607,0,0,1,.528,1.211,2.61,2.61,0,0,0-.411-1.279,1.443,1.443,0,0,1,.733.379s-.075-.508-.852-.553a3.309,3.309,0,0,0-.5-.578,3.14,3.14,0,0,1,1.242.143,1.4,1.4,0,0,0-1.383-.261l-.542-.443a4.472,4.472,0,0,1,1.448.014,1.763,1.763,0,0,0-1.594-.115l-.59-.352a5.372,5.372,0,0,1,1.383-.12,2.114,2.114,0,0,0-1.552.025l-.422-.189s.635-.126.821-.144.2-.071.2-.071a2.2,2.2,0,0,0-1.192.132A5.156,5.156,0,0,1,946.31,795.963Z" transform="translate(-814.537 -693.599)" fill="#0085ca"/>
      <ellipse id="Ellipse_117" data-name="Ellipse 117" cx="3.61" cy="0.61" rx="3.61" ry="0.61" transform="translate(131.675 106.252)" fill="#0085ca" opacity="0.1"/>
      <path id="Path_505" data-name="Path 505" d="M713.236,419.581a11.079,11.079,0,0,1-.169-1.655c0-.666-.905-1.256-.905-1.256s-.559-1.293-.931-1.484a11.4,11.4,0,0,1-1.523-1.883,1.538,1.538,0,0,0-.346-.913,13.131,13.131,0,0,1-.942-1.422h0c-.155-.189-.078-.323-.311-1.427a1.7,1.7,0,0,0-.043-.166.219.219,0,0,0-.025-.071,1.863,1.863,0,0,0,.439-1.93.776.776,0,0,0-.22-.342c-.262-.214-.682-.126-.952-.329l.287-1.27c.068-.311.1-.7-.168-.871a1.409,1.409,0,0,0-.32-.107,1.508,1.508,0,0,1-.857-1.121,3.839,3.839,0,0,1-.093-1.4c.053-.45.185-.888.233-1.34a3.679,3.679,0,0,0-.57-2.382,1.833,1.833,0,0,0-.753-.711c-.287-.129-.621-.155-.89-.311-.578-.368-.548-1.242-1.009-1.743a1.992,1.992,0,0,0-1.95-.328,5.888,5.888,0,0,1-2.031.393c-.444-.05-.86-.252-1.306-.3a1.374,1.374,0,0,0-.382.017v-.014a.828.828,0,0,0-.71.554.853.853,0,0,0-.022.227c0,.182.043.371.047.545a.519.519,0,0,1-.126.383c-.088.095-.219.144-.31.242a.388.388,0,0,0-.113.286c0,.276.345.52.576.632h.009c-.062.062-.124.127-.182.194A4.089,4.089,0,0,0,695.642,401a4.145,4.145,0,0,0,2.521,3.785l-.033.1a5.806,5.806,0,0,1-.228.587,1.163,1.163,0,0,0-.975.109,2.462,2.462,0,0,1-1.543.228,20.958,20.958,0,0,0-2.833-.286c-.194.076-.578-.265-.828.191s-.366.7-.621.818-.694.475-.635.551-.637.532-.637.532a3.166,3.166,0,0,1-.944.7,5.543,5.543,0,0,0-1.079.553l-.849.664s-.635.1-.442-.342-.348-.989-.348-.989a15.692,15.692,0,0,1-1.079-2.639,13.429,13.429,0,0,0-.886-2.378l-.109-.011-.05-.141c-.163-.458-.374-1.02-.536-1.349-.31-.629-.5-.694-.5-.694s-3.738-2.807-6.167-1.952,4.432,3.4,5.049,3.672a1.165,1.165,0,0,1,.48.747,3.2,3.2,0,0,0-1.327,1.194,25.384,25.384,0,0,1,1.523,4.108,15.782,15.782,0,0,0,1.022,3.105,2.165,2.165,0,0,0,2.351,1.6s2.737.5,3.335,0a4.731,4.731,0,0,1,1.427-.955,1.126,1.126,0,0,0,.539-.38s-.905,5.705-1.349,6.2-4.367,6.9-2.959,8.047a28.134,28.134,0,0,0,3.526,2.329c.12.059.478-.539.991-.963v.331c.009,2.279.31,5.744.727,6.521a7.221,7.221,0,0,1,.366,3.347,2.639,2.639,0,0,0,1.042.25c.019.075.04.155.061.233a31.009,31.009,0,0,0,1.172,3.8,15.441,15.441,0,0,1,.731,3.33,23.113,23.113,0,0,1,.155,2.833,16.676,16.676,0,0,0,.382,2.484h0c-.155,1.784-.45,5.223-.5,6.466h0v.09a.4.4,0,0,1,0,.042v.076h0a1.158,1.158,0,0,0,.009.234.76.76,0,0,1-.026.354,6.189,6.189,0,0,1-.418,1,4.748,4.748,0,0,0-.186.481.87.87,0,0,0-.45.64c-.193.742-.481,2.795-.481,2.795a5.055,5.055,0,0,1-.346,1.542,1.59,1.59,0,0,0,1.175,2.3,2.373,2.373,0,0,0,2.351-.869l-.057-4.98v-.009a.75.75,0,0,0,.085-.135v-.012c.011-.023.023-.048.034-.076l.014-.037.025-.061a.092.092,0,0,1,0-.022,3.291,3.291,0,0,0,.14-1.483v-.21a.588.588,0,0,1,.009-.1v-.019l.009-.061v-.026a.114.114,0,0,1,.012-.062.073.073,0,0,1,0-.016c.016-.071.034-.155.054-.224v-.017l.023-.075h0c.023-.079.05-.155.078-.239v-.016a.219.219,0,0,1,.026-.073v-.009c.028-.076.057-.155.085-.22l.008-.02.025-.062.008-.019.059-.138h0l.455,1.4a3.554,3.554,0,0,1,.116,1.293c-.135.247.155,1.275.346,1.293l-.179,1.293a19.805,19.805,0,0,0-.172,2.15c-.012.082-.025.155-.034.2a4.663,4.663,0,0,0,.174,1.691,2.272,2.272,0,0,0,3.335.14s.211-.952,0-1.141-.116-.876-.116-.876.1-1.694.115-2.93a3.871,3.871,0,0,0-1.011-2.329l-.057.051a3.659,3.659,0,0,1-.357-1.3c.078-.438-.213-5.06-.213-5.06a27.418,27.418,0,0,0,.068-3.726h0c.025-.21.048-.416.071-.621.116-.994.211-1.843.248-2.288h0v-.053c.009-.12.014-.2.012-.245,0-.155,0-.332.016-.526.036-.534.12-1.129.12-1.129l.4-2.455a7.673,7.673,0,0,1,.753-1.863l.053-.084h0c.017-.03.034-.062.053-.1l.008-.014c.017-.033.036-.067.053-.1l.008-.014c.062-.123.129-.264.2-.419,0-.012.011-.023.016-.036l.053-.118a.122.122,0,0,1,.02-.047c.008-.016.033-.079.05-.118a.458.458,0,0,0,.02-.048c.02-.047.042-.095.062-.144l.029-.071c.014-.036.03-.071.045-.107l.037-.095c.011-.023.02-.047.029-.07l.042-.107c0-.016.014-.033.02-.048.11-.275.216-.546.31-.793h0l.085-.224c.987.061,1.658.115,1.658.115a22.753,22.753,0,0,0,.211-3.689,13.709,13.709,0,0,1,.244-2.95c.014-.076.026-.144.039-.206l.026.022c.483.38.829-.876.829-.876s-.13-1.172-.311-2.593l-.019-.141a7.3,7.3,0,0,0,.843.129s.155-.014.368-.04a10.189,10.189,0,0,0,1.854.838l1.026-1.894a7.713,7.713,0,0,1,.675-1.122,10.229,10.229,0,0,0,1.388-1.826,6.428,6.428,0,0,1,.751-2.132A4.707,4.707,0,0,0,713.236,419.581Zm-4.279,1.445c-.405.171-.79,1.122-.809,1.408s-.444,1.54-.886,1.692a5.913,5.913,0,0,0-1.312.972c-.127.011-.272.028-.422.053a14.8,14.8,0,0,0-.444-2.394c-.31-.571.34-2.4.34-2.4a5.8,5.8,0,0,1,.466-2.282c.4-.438.311-1.542.311-1.542s.1-.456.135-.664.573,0,.578,0h0a2.526,2.526,0,0,1,1.2,1.425,8.178,8.178,0,0,0,1.292,2.34s-.174.514,0,.776S709.363,420.855,708.958,421.026Z" transform="translate(-586.545 -354.907)" fill="url(#linear-gradient)"/>
      <path id="Path_506" data-name="Path 506" d="M707,449.694a3.105,3.105,0,0,1,3.105-1.462v2.222h-1.349l-1.056-.267Z" transform="translate(-612.459 -399.831)" fill="#4c4981"/>
      <path id="Path_507" data-name="Path 507" d="M707,449.694a3.105,3.105,0,0,1,3.105-1.462v2.222h-1.349l-1.056-.267Z" transform="translate(-612.459 -399.831)" opacity="0.1"/>
      <path id="Path_508" data-name="Path 508" d="M684.905,425.594l-1.653,1.158s-.014-.231-.056-.548c-.082-.6-.267-1.5-.666-1.672-.607-.267-7.365-2.81-4.968-3.665s6.075,1.948,6.075,1.948.189.065.492.691c.155.329.368.89.528,1.348C684.8,425.266,684.905,425.594,684.905,425.594Z" transform="translate(-587.159 -376.605)" fill="#ae6e79"/>
      <path id="Path_509" data-name="Path 509" d="M712.232,431.6l.188-.089.528.6-.432.921-.736-.295.171-.736Z" transform="translate(-601.276 -380.826)" fill="#4c4981"/>
      <path id="Path_510" data-name="Path 510" d="M787.689,810.995s-.475-.056-.664.685-.475,2.794-.475,2.794a5.053,5.053,0,0,1-.342,1.539,1.592,1.592,0,0,0,1.158,2.3,2.336,2.336,0,0,0,2.316-.868l-.057-4.979Z" transform="translate(-679.235 -706.302)" fill="#444053"/>
      <path id="Path_511" data-name="Path 511" d="M819.339,812.44a3.863,3.863,0,0,1,1,2.319c-.019,1.233-.115,2.923-.115,2.923s-.093.685.115.874,0,1.14,0,1.14a2.218,2.218,0,0,1-3.285-.14,4.75,4.75,0,0,1-.171-1.688c.121-.661.459-3.634.459-3.634Z" transform="translate(-705.255 -707.524)" fill="#444053"/>
      <path id="Path_512" data-name="Path 512" d="M797.965,660.525a31.681,31.681,0,0,1-1.462,3.53,7.6,7.6,0,0,0-.739,1.863l-.4,2.448a13.677,13.677,0,0,0-.134,1.652c.019.551-.987,8.581-.987,8.581l-1.594,2.032a5.209,5.209,0,0,0-.588,2.018,2.931,2.931,0,0,1-.311,1.823s-.037,1.863-.095,2.277.21,1.6,0,1.8-3,.115-3.076-.228a10.137,10.137,0,0,1,.342-1.993l.247-1.594s.494-.872.38-1.158.208-.949.227-1.006.532-.987.438-1.348.6-8.02.6-8.02l1.955-13.726Z" transform="translate(-681.366 -578.311)" fill="#ae6e79"/>
      <path id="Path_513" data-name="Path 513" d="M797.965,660.542s-.155.432-.368,1a19.31,19.31,0,0,1-1.095,2.532,7.7,7.7,0,0,0-.741,1.863l-.4,2.45a13.778,13.778,0,0,0-.132,1.652c0,.217-.146,1.6-.332,3.2-.287,2.442-.655,5.379-.655,5.379l-1.594,2.032s-.081.155-.182.4a3.726,3.726,0,0,0-.407,1.612,2.942,2.942,0,0,1-.311,1.823s-.039,1.863-.095,2.277.21,1.594,0,1.8-3,.115-3.076-.227a10.157,10.157,0,0,1,.342-1.993l.247-1.6s.494-.873.379-1.158.21-.949.228-1.006.532-.987.438-1.348c-.073-.275.31-4.772.489-6.906.06-.671.1-1.107.1-1.107l1.681-11.808.137-.952.137-.966Z" transform="translate(-681.366 -578.328)" opacity="0.1"/>
      <path id="Path_514" data-name="Path 514" d="M793.224,694.211a6.7,6.7,0,0,1-3.063.286c-.385-.228,0-3.057,0-3.057l.175-1.29c-.188-.02-.474-1.045-.341-1.292a3.617,3.617,0,0,0-.113-1.29l-.447-1.4-.273-.855a38,38,0,0,1-1.486-5.861,16.975,16.975,0,0,1-.376-2.475,23.447,23.447,0,0,0-.155-2.829,16.067,16.067,0,0,0-.72-3.322,31.277,31.277,0,0,1-1.155-3.79c-.171-.657-.289-1.129-.289-1.129s2.869-.241,4.609-.324c.8-.039,1.362-.043,1.3.022a2.362,2.362,0,0,0-.079.916,23.922,23.922,0,0,0,.382,4.21,14.537,14.537,0,0,1,.418,3.664,11.549,11.549,0,0,0-.076,1.9,8.538,8.538,0,0,1,.335,2.06,27.839,27.839,0,0,1-.065,3.709s.284,4.614.208,5.05.607,1.8.607,2.07.189,2.069.189,2.069S793.211,694,793.224,694.211Z" transform="translate(-678.333 -583.444)" fill="#ae6e79"/>
      <path id="Path_515" data-name="Path 515" d="M808.99,449.19l-.326.352-.213.23-1.242,1.335-3.209.362-1.708-.456-.422-.113s0-.857.076-1.885c.109-1.318.368-2.919.987-3.355a2.467,2.467,0,0,0,.722-.914,5.157,5.157,0,0,0,.31-.767c.012-.034.022-.067.033-.1a8.56,8.56,0,0,0,.3-1.408s.41-.227.98-.491c1.486-.694,4.052-1.652,3.159.491a8.378,8.378,0,0,0-.335.963c-.014.048-.026.1-.037.143a3.116,3.116,0,0,0,.121,2.315h0a1.44,1.44,0,0,0,.129.2,1.033,1.033,0,0,0,.216.219l.369,2.346.031.194Z" transform="translate(-692.601 -393.88)" fill="#ae6e79"/>
      <path id="Path_516" data-name="Path 516" d="M819.853,443.207c-.169.407.082-.332,0,0-.677.481-2.271,1.852-3.167,1.852a2.489,2.489,0,0,1-1.306-.345,8.464,8.464,0,0,0,.334-1.508S821.087,440.244,819.853,443.207Z" transform="translate(-704.013 -394.502)" opacity="0.1"/>
      <path id="Path_517" data-name="Path 517" d="M807.958,411.779a4.142,4.142,0,0,1-3.706,4.116c-.143.014-.287.023-.433.023a4.139,4.139,0,1,1,4.139-4.139Z" transform="translate(-690.751 -365.569)" fill="#ae6e79"/>
      <path id="Path_518" data-name="Path 518" d="M801.036,496.777l-.59,1.539s-.48.02-1.228.043c-2.526.081-8.092.183-8.34-.466a1.649,1.649,0,0,1-.087-.511,10.008,10.008,0,0,1,.428-2.507s.265-3.038.265-3.17-.228-2.26-.228-2.26l.456-1.708,1.272-.893s.57.874.911.949a2.368,2.368,0,0,1,.8.5s1.119.683,1.481.3,3.17-2.051,3.17-2.051l1.481,1.633Z" transform="translate(-683.24 -432.22)" opacity="0.1"/>
      <path id="Path_519" data-name="Path 519" d="M801.061,498.3l-.59,1.537s-.48.022-1.228.045h-.073c-.323.011-.692.022-1.087.03a46.769,46.769,0,0,1-6.218-.155c-.543-.078-.9-.189-.958-.342a1.372,1.372,0,0,1-.068-.283c-.009-.071-.016-.155-.019-.228a10.008,10.008,0,0,1,.428-2.507s.265-3.038.265-3.17-.228-2.26-.228-2.26l.456-1.708.874-.612.4-.279a5.957,5.957,0,0,0,.436.574,1.162,1.162,0,0,0,.475.374,2.375,2.375,0,0,1,.8.5s1.119.683,1.481.3a28.776,28.776,0,0,1,2.771-1.812c.242-.147.4-.239.4-.239l.2.22,1.282,1.413Z" transform="translate(-683.266 -433.504)" fill="#fff"/>
      <path id="Path_520" data-name="Path 520" d="M718.349,448.171l-1.653,1.158s-.014-.231-.056-.548a3.347,3.347,0,0,0,1.456-1.351C718.248,447.843,718.349,448.171,718.349,448.171Z" transform="translate(-620.603 -399.182)" opacity="0.1"/>
      <path id="Path_521" data-name="Path 521" d="M715.965,452.929l-.36-.1a3.13,3.13,0,0,1-.931.7,5.436,5.436,0,0,0-1.062.55l-.837.664s-.621.1-.436-.342-.342-.987-.342-.987a15.658,15.658,0,0,1-1.063-2.639,13.269,13.269,0,0,0-.879-2.372s-1.1,2.146-3.114,1.462a25.459,25.459,0,0,1,1.5,4.1,15.764,15.764,0,0,0,1.006,3.094,2.143,2.143,0,0,0,2.316,1.6s2.7.5,3.285,0a4.761,4.761,0,0,1,1.4-.953,1.153,1.153,0,0,0,.531-.379v-2.257Z" transform="translate(-612.409 -400.009)" fill="#e04343"/>
      <path id="Path_522" data-name="Path 522" d="M743.3,491.33s.475,1.767.171,1.956Z" transform="translate(-643.124 -436.266)" opacity="0.1"/>
      <path id="Path_523" data-name="Path 523" d="M799.227,558.827c-2.526.081-8.092.182-8.34-.466a1.651,1.651,0,0,1-.087-.511l8.252.435Z" transform="translate(-683.249 -492.459)" opacity="0.1"/>
      <path id="Path_524" data-name="Path 524" d="M794.948,660.525s-.155.432-.368,1c-1.048-.064-2.436-.13-3.754-.14-.466,0-.922,0-1.354.016a10.2,10.2,0,0,0-2.212.245,5.868,5.868,0,0,1-1.972.255c-.171-.657-.289-1.129-.289-1.129s2.869-.241,4.609-.324l.137-.966Z" transform="translate(-678.35 -578.311)" opacity="0.1"/>
      <path id="Path_525" data-name="Path 525" d="M786.974,568.848l-.323.683s-.045.2-.1.526a13.453,13.453,0,0,0-.239,2.95,23.331,23.331,0,0,1-.21,3.683s-6.986-.588-9.036,0a4.143,4.143,0,0,1-3.058,0,7.34,7.34,0,0,0-.36-3.341c-.414-.776-.706-4.241-.716-6.521a5.749,5.749,0,0,1,.185-2.009,59.932,59.932,0,0,0,2.2-5.639l.407.022,1.087.057,6.179.326.97.051.1.31Z" transform="translate(-668.154 -493.582)" fill="#444053"/>
      <path id="Path_526" data-name="Path 526" d="M867.676,592.054l.057.609s-3.06-1-2.9-2.222,0-1.087,0-1.087l2.459.208Z" transform="translate(-745.78 -519.068)" fill="#4c4981"/>
      <path id="Path_527" data-name="Path 527" d="M867.676,592.054l.057.609s-3.06-1-2.9-2.222,0-1.087,0-1.087l2.459.208Z" transform="translate(-745.78 -519.068)" opacity="0.1"/>
      <path id="Path_528" data-name="Path 528" d="M753.924,491.8a2.726,2.726,0,0,0,1.077.56.7.7,0,0,1-.31-.155c-.219-.155-.427-.324-.638-.489a2,2,0,0,0-.593-.41A3.269,3.269,0,0,0,753.924,491.8Z" transform="translate(-651.706 -436.249)" opacity="0.1"/>
      <path id="Path_529" data-name="Path 529" d="M752.166,495.513a1.37,1.37,0,0,1,.236.374,2.261,2.261,0,0,1-.017,1.175l-.491-1.183c-.085-.2-.171-.4-.273-.6-.045-.082-.328-.425-.295-.5C751.413,494.584,752.074,495.4,752.166,495.513Z" transform="translate(-649.901 -439.159)" opacity="0.1"/>
      <path id="Path_530" data-name="Path 530" d="M834.225,539.568a1.581,1.581,0,0,0,.893-.418c-.5.064-.983.262-1.479.366a2.2,2.2,0,0,1-1.379-.127A3.39,3.39,0,0,0,834.225,539.568Z" transform="translate(-718.273 -476.662)" opacity="0.1"/>
      <path id="Path_531" data-name="Path 531" d="M822.265,511.281a.346.346,0,0,1-.256-.064q-.568-.326-1.121-.68a7.444,7.444,0,0,1-1.1-.758A5.584,5.584,0,0,0,822.265,511.281Z" transform="translate(-707.739 -451.852)" opacity="0.1"/>
      <path id="Path_532" data-name="Path 532" d="M836.892,543.349a2.363,2.363,0,0,0,.593-.048.8.8,0,0,0,.487-.32.279.279,0,0,0-.206.033,3.484,3.484,0,0,1-1.906.228A2.752,2.752,0,0,0,836.892,543.349Z" transform="translate(-721.314 -479.892)" opacity="0.1"/>
      <path id="Path_533" data-name="Path 533" d="M793.057,601.275a6.223,6.223,0,0,1-1.213.238,7.328,7.328,0,0,1-.959-.019l-1.552-.1-.776-.05c-.092,0-.466,0-.281-.185.093-.09.612-.033.745-.037q.387-.012.776-.014c.514,0,1.029,0,1.543.031C791.916,601.169,792.482,601.213,793.057,601.275Z" transform="translate(-681.073 -529.003)" opacity="0.1"/>
      <path id="Path_534" data-name="Path 534" d="M788.407,606.334a6.266,6.266,0,0,0-.876.18,5.814,5.814,0,0,1-.916.036,5.107,5.107,0,0,1-1.765-.36C786.035,606.25,787.222,606.286,788.407,606.334Z" transform="translate(-678.223 -533.294)" opacity="0.1"/>
      <path id="Path_535" data-name="Path 535" d="M783.4,612.09a2.539,2.539,0,0,1,.339.093,3.972,3.972,0,0,0,2.018-.143,1.184,1.184,0,0,1-.765.425,3.547,3.547,0,0,1-1.49.054c-.155-.031-.545-.087-.621-.248C782.751,612.034,783.253,612.066,783.4,612.09Z" transform="translate(-676.54 -538.236)" opacity="0.1"/>
      <path id="Path_536" data-name="Path 536" d="M804.687,618.391a5.058,5.058,0,0,1,.581.155,4.911,4.911,0,0,0,2.243-.237,10.443,10.443,0,0,1,2.715-.252,2.69,2.69,0,0,0-.582.191c-.21.064-.422.123-.635.175-.418.1-.841.186-1.268.247a13.033,13.033,0,0,1-2.6.113,3.773,3.773,0,0,1-1.427-.182A1.572,1.572,0,0,1,804.687,618.391Z" transform="translate(-694.155 -543.313)" opacity="0.1"/>
      <path id="Path_537" data-name="Path 537" d="M778.963,464.623a10.028,10.028,0,0,1-.247,2.546c-.09.248-.23.706-.382,1.22-.166.57-.348,1.208-.487,1.708s-.233.835-.233.835-.641,5.223-.807,7.711a.611.611,0,0,1-.009.13c-.009.14-.025.286-.048.436-.37,2.472-2.5,6.283-3.217,6.587a2.13,2.13,0,0,0-.6.415,5.749,5.749,0,0,1,.185-2.009,59.932,59.932,0,0,0,2.2-5.639l.407.022c-.009-.071-.016-.155-.019-.228a10.008,10.008,0,0,1,.428-2.507s.265-3.038.265-3.17-.228-2.26-.228-2.26l.456-1.708.874-.612c.109-1.318.368-2.919.987-3.355a2.467,2.467,0,0,0,.722-.914c.123.017-.1-.092-.1-.092Z" transform="translate(-668.153 -412.959)" opacity="0.1"/>
      <path id="Path_538" data-name="Path 538" d="M753.506,462.789a1.13,1.13,0,0,0-.961.109,2.4,2.4,0,0,1-1.52.228,20.608,20.608,0,0,0-2.795-.286c-.194.076-.57-.265-.817.191s-.36.7-.607.815-.685.475-.621.551-.621.531-.621.531l1.385,4.5s-.893,5.695-1.329,6.188-4.31,6.892-2.923,8.031a27.592,27.592,0,0,0,3.474,2.329c.155.076.7-.949,1.461-1.272s3.114-4.6,3.26-7.025.817-7.84.817-7.84.817-2.962,1.1-3.76a10.03,10.03,0,0,0,.247-2.546Z" transform="translate(-642.363 -412.105)" fill="#e04343"/>
      <path id="Path_539" data-name="Path 539" d="M841.419,495.6l-.323.683s-.045.2-.1.526a.291.291,0,0,1-.155-.07c-.475-.38-3.26-3.246-3.4-5.791-.1-1.877-.051-3.495-.02-4.215.009-.227.019-.363.019-.393h0s2.164-2.621,1.917-3.549-.817-5.9-.817-5.9l-.084-.652-.144-1.1-.345-2.667.357.084a1.037,1.037,0,0,0,.216.219l.37,2.346,1.282,1.413.21,8.6-.59,1.537s-.48.022-1.228.045h-.073Z" transform="translate(-722.598 -420.334)" opacity="0.1"/>
      <path id="Path_540" data-name="Path 540" d="M843.745,480.785s-.531-.21-.568,0-.133.663-.133.663.095,1.1-.31,1.539a5.723,5.723,0,0,0-.466,2.278s-.64,1.823-.337,2.392a15.347,15.347,0,0,1,.452,2.484c.109.776.216,1.629.31,2.408.172,1.416.3,2.588.3,2.588s-.343,1.253-.818.872-3.26-3.246-3.4-5.791c-.093-1.787-.056-3.339-.025-4.1.012-.324.025-.508.025-.508s2.164-2.621,1.917-3.551-.817-5.9-.817-5.9l-.1-.768-.107-.826-.025-.182-.343-2.639h0a11.808,11.808,0,0,1,2.472.776,8.493,8.493,0,0,0,2.018.683,1.518,1.518,0,0,1,1.077,1.105c.017.053.029.109.042.166.228,1.1.155,1.234.31,1.425A42.665,42.665,0,0,1,843.745,480.785Z" transform="translate(-723.729 -419.717)" fill="#e04343"/>
      <path id="Path_541" data-name="Path 541" d="M854.039,592.658c-.776-.155-1.928-.514-1.9-1.306.023-.741.914-1.008,1.59-1.1C853.836,591.023,853.943,591.879,854.039,592.658Z" transform="translate(-735.064 -519.829)" opacity="0.1"/>
      <path id="Path_542" data-name="Path 542" d="M857.064,591.35c-.031.067-.155.124-.332.175a8.951,8.951,0,0,1-1.262.207s-2.639-.21-2.6-1.407c.028-.859,1.22-1.087,1.889-1.138a4.36,4.36,0,0,1,.446-.019S857.178,591.1,857.064,591.35Z" transform="translate(-735.681 -518.915)" fill="#ae6e79"/>
      <path id="Path_543" data-name="Path 543" d="M866.57,591.35c-.031.067-.155.124-.332.175-.688-.921-1.647-2.1-2.118-2.206l.143-.132a4.363,4.363,0,0,1,.446-.019S866.683,591.1,866.57,591.35Z" transform="translate(-745.186 -518.915)" opacity="0.1"/>
      <path id="Path_544" data-name="Path 544" d="M866.531,497.69l.776.115a13.494,13.494,0,0,0,.932,1.424,1.552,1.552,0,0,1,.342.911,11.665,11.665,0,0,0,1.5,1.879c.36.189.911,1.481.911,1.481s.893.588.893,1.253a11.162,11.162,0,0,0,.171,1.652,4.685,4.685,0,0,1-.512,1.863,6.362,6.362,0,0,0-.741,2.124,10.049,10.049,0,0,1-1.366,1.823,7.722,7.722,0,0,0-.664,1.121l-1.006,1.9s-2.127-3.133-2.9-3.3a6.113,6.113,0,0,1,1.309-.987c.436-.152.855-1.4.874-1.689s.4-1.234.8-1.4.609-.342.438-.609a1.134,1.134,0,0,1,0-.776A8.2,8.2,0,0,1,867,504.142a2.535,2.535,0,0,0-1.177-1.424l-.588-1.444Z" transform="translate(-745.811 -441.639)" fill="#e04343"/>
      <path id="Path_545" data-name="Path 545" d="M889.95,540.181a2.464,2.464,0,0,1,1.532-.581,1.869,1.869,0,0,0-1,.393,2.369,2.369,0,0,0-.278.354c-.09.129-.823,1.06-.932.913C889.089,541.044,889.8,540.306,889.95,540.181Z" transform="translate(-766.407 -477.042)" opacity="0.1"/>
      <path id="Path_546" data-name="Path 546" d="M882.73,521.111a.657.657,0,0,0,.542-.383,2.153,2.153,0,0,0,.169-.674,10.043,10.043,0,0,1,.234-1.154.534.534,0,0,0-.033-.466,1.578,1.578,0,0,0-.168-.345,2.068,2.068,0,0,0-.238.725c-.071.258-.137.517-.2.776C883.006,519.716,882.749,521.111,882.73,521.111Z" transform="translate(-760.907 -458.872)" opacity="0.1"/>
      <path id="Path_547" data-name="Path 547" d="M817.325,420.158a1.6,1.6,0,0,1-.262.27c-.31.247-.722.455-.761.845a.91.91,0,0,1-.047.374c-.1.171-.343.155-.537.123a.932.932,0,0,1-.455-.168c-.2-.174-.222-.484-.377-.7a.958.958,0,0,0-.776-.343c-.29-.009-.579.056-.869.068a2.39,2.39,0,0,1-.557-.037,1.775,1.775,0,0,1-.18-.037,2.319,2.319,0,0,1-.379-.129,1.665,1.665,0,0,1-.185-.087,2.452,2.452,0,0,1-.536-.373,1.331,1.331,0,0,1-.5-1.008c.014-.238.121-.456.155-.691a2.166,2.166,0,0,0-.812-1.784c-.193-.191-.4-.376-.59-.57a2.841,2.841,0,0,1-.694-.991,2.95,2.95,0,0,1-.124-1.242,8.576,8.576,0,0,0,.036-1.276,4.484,4.484,0,0,0-2.72-3.294l-.057-.03a4.137,4.137,0,1,1,5.566,6.055c-.014.048-.026.1-.037.143a3.116,3.116,0,0,0,.121,2.315h0a11.805,11.805,0,0,1,2.472.776,8.494,8.494,0,0,0,2.018.683A1.518,1.518,0,0,1,817.325,420.158Z" transform="translate(-696.174 -365.583)" opacity="0.1"/>
      <path id="Path_548" data-name="Path 548" d="M803.729,397.97c.085-.1.214-.147.3-.242.269-.292,0-.768.1-1.154a.958.958,0,0,1,1.068-.568c.438.045.848.247,1.286.3a5.654,5.654,0,0,0,2-.391,1.925,1.925,0,0,1,1.921.326c.456.508.425,1.372.994,1.74a5.651,5.651,0,0,0,.877.311,1.8,1.8,0,0,1,.742.71,3.717,3.717,0,0,1,.562,2.377c-.048.45-.179.888-.231,1.338a3.9,3.9,0,0,0,.093,1.4,1.489,1.489,0,0,0,.843,1.118,1.419,1.419,0,0,1,.311.107c.269.168.233.562.165.869l-.276,1.275c.266.2.678.115.932.328a.776.776,0,0,1,.217.342,1.863,1.863,0,0,1-.557,2.04c-.311.247-.722.455-.761.843a.875.875,0,0,1-.047.374c-.1.171-.343.155-.537.123a.932.932,0,0,1-.453-.168c-.2-.174-.222-.484-.377-.7a.961.961,0,0,0-.776-.343c-.292-.009-.579.056-.871.07a2.574,2.574,0,0,1-1.83-.661,1.337,1.337,0,0,1-.5-1.009c.014-.236.121-.456.155-.691a2.172,2.172,0,0,0-.812-1.784,4.732,4.732,0,0,1-1.286-1.56,9.72,9.72,0,0,1-.089-2.51,4.483,4.483,0,0,0-2.72-3.3C803.884,398.724,803.4,398.35,803.729,397.97Z" transform="translate(-694.076 -355.571)" fill="#444053"/>
      <path id="Path_549" data-name="Path 549" d="M813.816,412.11c-.2-.175-.222-.484-.377-.7a.964.964,0,0,0-.776-.345c-.292-.009-.581.056-.871.07a2.566,2.566,0,0,1-1.837-.663,1.332,1.332,0,0,1-.5-1.008c.014-.238.121-.458.155-.691a2.169,2.169,0,0,0-.812-1.785,4.75,4.75,0,0,1-1.286-1.56,10.14,10.14,0,0,1-.087-2.51,4.489,4.489,0,0,0-2.72-3.3c-.3-.147-.79-.522-.456-.9.084-.1.213-.147.3-.242.269-.29,0-.768.1-1.152a.634.634,0,0,1,.1-.213.828.828,0,0,0-.7.554c-.095.385.171.862-.1,1.154-.087.095-.216.144-.3.241-.334.38.155.756.456.9a4.485,4.485,0,0,1,2.72,3.3,9.727,9.727,0,0,0,.089,2.512,4.684,4.684,0,0,0,1.286,1.56,2.149,2.149,0,0,1,.812,1.784,5.957,5.957,0,0,0-.155.691,1.333,1.333,0,0,0,.5,1.008,2.56,2.56,0,0,0,1.835.663c.292-.014.579-.078.871-.07a.966.966,0,0,1,.776.345c.155.219.172.529.377.7a.931.931,0,0,0,.453.166c.194.036.439.048.537-.121a.419.419,0,0,0,.044-.224A.893.893,0,0,1,813.816,412.11Z" transform="translate(-694.009 -356.674)" opacity="0.1"/>
      <path id="Path_550" data-name="Path 550" d="M574.467,77.252h-7.84V69.526h7.846ZM574.353,65.6H566.74c0-12.005,11.411-11.3,11.411-18.9a7.569,7.569,0,0,0-7.608-7.535,7.764,7.764,0,0,0-7.606,7.654H555.33a15.214,15.214,0,0,1,30.428-.119c0,9.5-11.41,10.578-11.41,18.9Z" transform="translate(-478.657 -31.61)" fill="#0085ca"/>
      <path id="Path_551" data-name="Path 551" d="M342.45,326.15h-2.77v-2.736h2.77Zm-.042-4.114h-2.686c0-4.238,4.029-3.991,4.029-6.676a2.673,2.673,0,0,0-2.686-2.663,2.743,2.743,0,0,0-2.68,2.7H335.7a5.373,5.373,0,1,1,10.746-.042c-.008,3.353-4.037,3.735-4.037,6.673Z" transform="translate(-298.804 -283.092)" fill="#0085ca" opacity="0.1"/>
      <path id="Path_552" data-name="Path 552" d="M477.462,448.594h-2.77v-2.728h2.77Zm-.04-4.113h-2.686c0-4.24,4.029-3.991,4.029-6.676a2.672,2.672,0,0,0-2.686-2.661,2.743,2.743,0,0,0-2.694,2.7H470.7a5.373,5.373,0,1,1,10.746-.042C481.449,441.161,477.422,441.544,477.422,444.482Z" transform="translate(-412.845 -386.531)" fill="#0085ca" opacity="0.1"/>
      <path id="Path_553" data-name="Path 553" d="M569.756,256.066h-2.007v-1.973h2.007Zm-.03-2.982H567.78c0-3.071,2.92-2.892,2.92-4.836a1.938,1.938,0,0,0-1.947-1.928,1.987,1.987,0,0,0-1.947,1.959H564.86a3.894,3.894,0,1,1,7.787-.031C572.644,250.678,569.727,250.956,569.727,253.084Z" transform="translate(-492.386 -227.647)" fill="#0085ca" opacity="0.1"/>
      <path id="Path_554" data-name="Path 554" d="M802.144,302.008h-1.135V300.89h1.135Zm-.017-1.684H801.02c0-1.736,1.65-1.635,1.65-2.734a1.087,1.087,0,0,0-1.1-1.087,1.124,1.124,0,0,0-1.1,1.107h-1.1a2.2,2.2,0,0,1,4.4-.017C803.778,298.957,802.127,299.12,802.127,300.324Z" transform="translate(-690.489 -270.803)" fill="#0085ca" opacity="0.1"/>
      <path id="Path_555" data-name="Path 555" d="M913.938,629.479H912.8v-1.118h1.135Zm-.017-1.685h-1.1c0-1.737,1.652-1.635,1.652-2.734a1.1,1.1,0,0,0-1.1-1.087,1.122,1.122,0,0,0-1.1,1.107h-1.1a2.2,2.2,0,0,1,4.4-.017c.006,1.371-1.644,1.528-1.644,2.731Z" transform="translate(-784.932 -547.434)" fill="#0085ca" opacity="0.1"/>
    </g>
  </g>
</svg>
