<svg xmlns="http://www.w3.org/2000/svg" width="45" height="45" viewBox="0 0 45 45">
  <g id="Group_361" data-name="Group 361" transform="translate(-6518 -894.752)">
    <circle id="Ellipse_1" data-name="Ellipse 1" cx="22.5" cy="22.5" r="22.5" transform="translate(6518 894.752)" fill="#0085ca"/>
    <path id="headset" d="M19.336,9.427A9.418,9.418,0,1,0,.5,9.427v5.147c0,.005,0,.011,0,.016s0,.021,0,.032a3.994,3.994,0,0,0,3.988,3.992.721.721,0,0,0,.721-.721V11.351a.721.721,0,0,0-.721-.721,3.967,3.967,0,0,0-2.547.922V9.427a7.976,7.976,0,1,1,15.953,0v2.126a3.967,3.967,0,0,0-2.547-.922.721.721,0,0,0-.721.721v6.542a.721.721,0,0,0,.721.721,3.966,3.966,0,0,0,2.491-.878,6.268,6.268,0,0,1-5.493,5.385A1.9,1.9,0,0,0,10.494,20.8H9.341a1.9,1.9,0,0,0,0,3.8h2.3a7.706,7.706,0,0,0,7.7-7.7Zm0,0" transform="translate(6530.037 904.822)" fill="#fff"/>
  </g>
</svg>
