<svg id="user" xmlns="http://www.w3.org/2000/svg" width="44.408" height="44.408" viewBox="0 0 44.408 44.408">
  <g id="Group_1" data-name="Group 1" transform="translate(0)">
    <circle id="Ellipse_4" data-name="Ellipse 4" cx="19.243" cy="19.243" r="19.243" transform="translate(3.261 3.33)" fill="#fff"/>
    <path id="Path_3" data-name="Path 3" d="M22.2,0a22.2,22.2,0,1,0,22.2,22.2A22.2,22.2,0,0,0,22.2,0Zm.068,32.679h-9.62c0-6.936,6.092-6.934,7.443-8.748l.155-.827a6.629,6.629,0,0,1-3.24-6c0-3.575,2.326-6.474,5.194-6.474s5.194,2.9,5.194,6.474a6.652,6.652,0,0,1-3.191,5.975l.176.94c1.483,1.726,7.372,1.838,7.372,8.658Z" transform="translate(-0.001)" fill="#0085ca"/>
  </g>
</svg>
