<svg xmlns="http://www.w3.org/2000/svg" width="44" height="44" viewBox="0 0 44 44">
  <g id="Group_2" data-name="Group 2" transform="translate(-242 -381)">
    <circle id="Ellipse_1" data-name="Ellipse 1" cx="22" cy="22" r="22" transform="translate(242 381)" fill="#0085ca"/>
    <g id="settings-gears" transform="translate(252.644 391.644)">
      <path id="Path_8" data-name="Path 8" d="M2.524,18.62a9.355,9.355,0,0,0,.837,1.987L2.35,21.88a1.045,1.045,0,0,0,.078,1.385L4.168,25a1.041,1.041,0,0,0,1.385.078l1.265-1a9.194,9.194,0,0,0,2.065.874l.19,1.628a1.043,1.043,0,0,0,1.035.923h2.461a1.043,1.043,0,0,0,1.035-.923l.181-1.57A9.3,9.3,0,0,0,16,24.118l1.224.969a1.045,1.045,0,0,0,1.385-.078l1.739-1.739a1.041,1.041,0,0,0,.078-1.385l-.952-1.208a9.084,9.084,0,0,0,.911-2.176l1.467-.169a1.043,1.043,0,0,0,.923-1.035V14.836a1.043,1.043,0,0,0-.923-1.035L20.4,13.632a9.143,9.143,0,0,0-.874-2.152l.89-1.125a1.045,1.045,0,0,0-.078-1.385L18.607,7.235a1.041,1.041,0,0,0-1.385-.078l-1.092.866a9.174,9.174,0,0,0-2.263-.948L13.7,5.66a1.043,1.043,0,0,0-1.035-.923H10.207a1.043,1.043,0,0,0-1.035.923L9.007,7.074a9.135,9.135,0,0,0-2.321.981l-1.134-.9a1.045,1.045,0,0,0-1.385.078L2.429,8.974a1.041,1.041,0,0,0-.078,1.385l.948,1.2a8.967,8.967,0,0,0-.857,2.172L.924,13.9A1.043,1.043,0,0,0,0,14.939V17.4a1.043,1.043,0,0,0,.923,1.035Zm8.916-6.657a4.068,4.068,0,1,1-4.068,4.068A4.074,4.074,0,0,1,11.439,11.963Z" transform="translate(-0.001 -4.737)" fill="#fff"/>
    </g>
  </g>
</svg>
