<?xml version="1.0" standalone="no"?>
<!DOCTYPE svg PUBLIC "-//W3C//DTD SVG 20010904//EN"
 "http://www.w3.org/TR/2001/REC-SVG-20010904/DTD/svg10.dtd">
<svg version="1.0" xmlns="http://www.w3.org/2000/svg"
 width="436.000000pt" height="410.000000pt" viewBox="0 0 436.000000 410.000000"
 preserveAspectRatio="xMidYMid meet">
<metadata>
Created by potrace 1.15, written by Peter Selinger 2001-2017
</metadata>
<g transform="translate(0.000000,410.000000) scale(0.100000,-0.100000)"
fill="#287BBF" stroke="none">
<path d="M2089 4061 l-39 -39 0 -621 c0 -682 -2 -664 60 -696 64 -33 156 -11
185 45 13 25 15 115 15 651 l0 621 -39 39 c-35 35 -44 39 -91 39 -47 0 -56 -4
-91 -39z"/>
<path d="M740 2936 c-344 -73 -627 -343 -716 -681 -26 -99 -26 -314 0 -410 85
-314 319 -558 636 -661 78 -25 98 -28 240 -28 148 0 159 2 250 32 301 101 506
307 612 612 31 92 32 101 32 250 0 142 -3 162 -28 240 -101 310 -337 542 -641
630 -92 27 -293 35 -385 16z m382 -288 c99 -37 172 -85 241 -158 115 -121 167
-261 167 -444 0 -186 -55 -322 -179 -447 -125 -124 -261 -179 -447 -179 -183
0 -323 52 -444 167 -124 116 -179 243 -187 424 -10 212 42 356 176 489 86 85
163 131 273 160 107 29 305 23 400 -12z"/>
<path d="M3317 2940 c-282 -51 -533 -243 -661 -505 -79 -162 -91 -211 -90
-390 0 -136 3 -158 28 -235 99 -304 322 -527 626 -626 77 -25 99 -28 235 -28
176 -1 226 10 382 85 192 92 333 232 427 424 79 162 91 211 90 390 0 136 -3
158 -28 235 -99 304 -325 530 -626 625 -69 22 -109 28 -210 30 -69 2 -146 0
-173 -5z m353 -288 c186 -61 334 -211 393 -397 19 -59 22 -92 21 -215 0 -131
-3 -152 -26 -212 -70 -185 -204 -317 -387 -380 -57 -20 -86 -23 -206 -23 -117
0 -152 4 -210 22 -189 60 -338 209 -398 398 -18 58 -22 93 -22 210 0 120 3
149 23 206 72 209 245 364 457 409 73 16 283 5 355 -18z"/>
<path d="M2130 2557 c-73 -25 -107 -140 -59 -201 80 -102 239 -54 239 73 0 58
-29 107 -75 127 -41 17 -58 17 -105 1z"/>
<path d="M2109 2163 c-80 -49 -79 -179 1 -227 60 -35 150 -13 184 44 35 60 13
150 -44 184 -36 20 -107 20 -141 -1z"/>
<path d="M2114 1781 c-46 -28 -64 -59 -64 -112 0 -133 165 -187 238 -79 20 29
23 44 20 87 -5 59 -25 88 -75 109 -45 19 -82 17 -119 -5z"/>
<path d="M2108 1394 c-59 -32 -58 -16 -58 -689 0 -553 2 -620 16 -645 48 -81
180 -81 228 0 14 25 16 92 16 645 0 676 2 658 -60 690 -37 19 -107 19 -142 -1z"/>
</g>
</svg>
