<?xml version="1.0" standalone="no"?>
<!DOCTYPE svg PUBLIC "-//W3C//DTD SVG 20010904//EN"
 "http://www.w3.org/TR/2001/REC-SVG-20010904/DTD/svg10.dtd">
<svg version="1.0" xmlns="http://www.w3.org/2000/svg"
 width="512.000000pt" height="512.000000pt" viewBox="0 0 512.000000 512.000000"
 preserveAspectRatio="xMidYMid meet">
<metadata>
Created by potrace 1.15, written by Peter Selinger 2001-2017
</metadata>
<g transform="translate(0.000000,512.000000) scale(0.100000,-0.100000)"
fill="#287BBF" stroke="none">
<path d="M4033 4968 c-17 -18 -33 -42 -36 -53 -5 -17 -77 -541 -77 -559 0 -4
-24 11 -52 32 -189 137 -569 309 -752 341 -28 5 -109 19 -181 32 -112 20 -163
23 -370 23 -207 0 -258 -3 -370 -23 -71 -13 -153 -27 -181 -32 -130 -22 -424
-142 -592 -240 -385 -226 -701 -568 -891 -963 -72 -149 -107 -249 -155 -449
-52 -214 -59 -288 -53 -577 4 -227 8 -269 31 -380 46 -212 74 -250 188 -250
74 0 118 22 144 71 20 39 16 112 -15 282 -44 240 -44 425 -1 673 78 453 355
901 727 1179 68 50 140 100 160 112 21 11 77 41 124 67 92 49 224 101 379 147
355 106 809 90 1143 -42 28 -11 72 -28 97 -36 75 -26 294 -142 358 -191 18
-14 29 -28 25 -33 -7 -7 -86 -29 -368 -105 -138 -37 -170 -51 -205 -90 -26
-31 -30 -42 -30 -97 0 -103 57 -167 150 -167 25 0 146 29 275 65 126 36 313
88 415 117 178 49 250 80 270 117 15 29 111 831 110 928 0 47 -4 58 -36 93
l-36 40 -82 0 c-80 0 -83 -1 -113 -32z"/>
<path d="M4493 3230 c-70 -43 -76 -101 -34 -333 44 -240 44 -425 1 -673 -48
-277 -179 -573 -364 -819 -124 -164 -385 -398 -534 -477 -26 -14 -81 -43 -123
-66 -147 -81 -401 -163 -609 -197 -140 -22 -408 -20 -552 5 -197 34 -449 116
-586 191 -42 23 -97 53 -121 66 -73 40 -133 85 -124 93 9 9 255 80 275 80 7 0
68 16 136 36 108 33 127 42 157 76 32 35 35 43 35 101 0 72 -22 116 -72 147
-63 38 -71 36 -781 -166 -193 -55 -252 -83 -262 -128 -8 -32 -52 -367 -65
-491 -6 -60 -18 -167 -26 -236 -8 -69 -14 -152 -14 -183 0 -50 4 -60 36 -96
l36 -40 83 0 83 0 34 38 c34 37 34 38 62 252 15 118 32 247 38 287 l10 72 52
-37 c54 -40 212 -135 282 -170 51 -26 224 -96 319 -129 68 -23 225 -57 390
-84 107 -18 513 -18 620 0 266 43 357 67 564 150 125 50 158 67 281 139 209
124 459 339 607 522 139 174 297 453 358 635 40 118 94 337 110 446 20 134 20
504 0 638 -33 222 -66 320 -120 355 -36 24 -141 21 -182 -4z"/>
</g>
</svg>
