<svg xmlns="http://www.w3.org/2000/svg" width="16.28" height="14.624" viewBox="0 0 16.28 14.624">
  <g id="premium-2" transform="translate(0)">
    <path id="Path_9" data-name="Path 9" d="M107.226.011,97.485,0,94.211,4.666l8.128,9.958,8.151-9.939Zm-2.495,5.07-2.39,7.481L99.969,5.076ZM100.2,4.231l2.151-3.065,2.144,3.07ZM103.167.852l3.214,0-1.172,2.92ZM99.494,3.77,98.329.846l3.214,0Zm-.727.459-3.214,0L97.6,1.305Zm.314.846,2.187,6.9-5.636-6.9Zm6.537.008,3.449,0-5.652,6.892Zm.316-.845,1.172-2.92,2.042,2.924Zm0,0" transform="translate(-94.211)" fill="#0085ca"/>
  </g>
</svg>
