<svg id="undraw_confirmation_2uy0" xmlns="http://www.w3.org/2000/svg" xmlns:xlink="http://www.w3.org/1999/xlink" width="123.302" height="85.678" viewBox="0 0 123.302 85.678">
  <defs>
    <linearGradient id="linear-gradient" x1="0.5" y1="1" x2="0.5" gradientUnits="objectBoundingBox">
      <stop offset="0" stop-color="gray" stop-opacity="0.251"/>
      <stop offset="0.54" stop-color="gray" stop-opacity="0.122"/>
      <stop offset="1" stop-color="gray" stop-opacity="0.102"/>
    </linearGradient>
    <linearGradient id="linear-gradient-2" x1="0.5" y1="1" x2="0.5" y2="0" xlink:href="#linear-gradient"/>
  </defs>
  <path id="Path_296" data-name="Path 296" d="M139.732,142.562q-.577.536-1.18,1.042c-.068.058-.137.113-.206.172a41.391,41.391,0,0,1-4.506,3.217l-.293.18c-.071.045-.141.087-.215.129-1.637,1-3.336,1.919-5.055,2.79l-.018.01-.13.065q-2.079,1.054-4.221,2.016l-.034.014q-.966.43-1.931.837c-.263.113-.527.219-.791.327-.5.2-.995.4-1.5.587l-.062.025-.107.04-.134.052q-1.965.742-3.982,1.37l-.024.007q-1.407.433-2.832.8l-.13.034c-1.395.356-2.812.662-4.238.907l-.328.056q-1.564.26-3.15.424a73.6,73.6,0,0,1-17.864-.733,122.417,122.417,0,0,1-34.43-9.941q-3.09-1.446-6.06-3.1c-.016-.009-.03-.018-.046-.026q-1.778-.988-3.507-2.058c-.338-.206-.674-.417-1.008-.629q-.616-.392-1.226-.794-.8-.531-1.609-1.088l-.251-.177-.1-.069c-.136-.1-.27-.193-.406-.29-5.043-3.629-9.54-8.027-11.664-13.531-2.455-6.351-.884-14.4,5.2-18.157A23.3,23.3,0,0,1,38.67,104.5l.251-.059c.415-.1.83-.189,1.244-.282,1.447-.324,2.9-.646,4.343-1.006h0c.751-.187,1.495-.383,2.234-.6l.3-.088a34.891,34.891,0,0,0,5.216-1.942h.011q.272-.128.536-.264c.114-.057.227-.113.341-.176a20.239,20.239,0,0,0,5.241-3.875c.119-.127.235-.256.348-.386.087-.1.173-.2.255-.305a7.944,7.944,0,0,0,1.9-4.222h0a5.75,5.75,0,0,0-.064-1.523c-.168-.951-.332-1.883-.452-2.791a15.106,15.106,0,0,1,.011-4.912h0a9.415,9.415,0,0,1,2.4-4.644q.31-.34.668-.68a14,14,0,0,1,3.716-2.481l.505-.227c3.764-1.61,8.286-1.946,12.512-1.724a64.8,64.8,0,0,1,11.723,1.724c.306.073.612.149.915.227a78.076,78.076,0,0,1,9.657,3.156A117.745,117.745,0,0,1,125.645,90.2l.215.147q.453.312.9.626.866.607,1.717,1.221l.383.276q.283.2.563.409L130,93.3h0a.633.633,0,0,1,.077.058l.489.358c.283.209.564.418.847.629h0l.605.454c.126.1.252.189.378.286l.644.5.144.113c.03.023.06.045.089.07l.018.012c1.745,1.353,3.447,2.756,5.043,4.243l.206.193.021.02c.174.163.348.329.518.5a36.362,36.362,0,0,1,5.476,6.541C151.562,118.272,149.482,133.5,139.732,142.562Z" transform="translate(-25.39 -72.257)" fill="#0085ca" opacity="0.1"/>
  <path id="Path_297" data-name="Path 297" d="M845.366,229a6.1,6.1,0,0,0-.444-1.347c0-.054-.537-.663-.537-1.006s-.7-1.077-.7-1.077a1.84,1.84,0,0,1-1.045-1.311c-.1-.9-1.09-.916-1.129-.917,0,0,0-.082.006-.206a3.159,3.159,0,0,0-.127-1.05,1.026,1.026,0,0,0-.582-.523,2.46,2.46,0,0,0-.309-.915,1.073,1.073,0,0,1-.238-.971,1.354,1.354,0,0,0-.134-.838.831.831,0,0,0-.5-.491h-.018c-.491-.126-1.042-.319-1.042-.319s-.056.011-.138.024l-.069-.024a2.922,2.922,0,0,1-.358.048.43.43,0,0,1-.291-.1,5.661,5.661,0,0,0-1.814-.575,4.158,4.158,0,0,1-.994-.36l-.735-.593a4.962,4.962,0,0,1-.644-.939l-.009-.012h0a3.214,3.214,0,0,1-.135-.4c-.008-.025-.013-.05-.02-.077h0a4.278,4.278,0,0,0,.409-.531v-.006c.033-.049.064-.1.1-.153q.068-.113.129-.235c.017-.035.033-.071.05-.105a.409.409,0,0,0,.107-.019l.046-.018a.538.538,0,0,0,.118-.078l.034-.033a.891.891,0,0,0,.215-.348c.012-.039.023-.078.031-.113a.179.179,0,0,1,.01-.041c0-.012.012-.054.016-.083l.007-.045a.485.485,0,0,1,.013-.081.161.161,0,0,0,0-.046c0-.033.009-.068.012-.1.015-.128.028-.254.054-.379a.01.01,0,0,0,0-.006,3,3,0,0,1,.253-.69c.107-.219.225-.434.322-.66h0c.028-.065.055-.13.078-.2s.047-.145.069-.219a.325.325,0,0,1,.015-.067,1.643,1.643,0,0,0,.034-.162.6.6,0,0,0,.013-.071c.013-.075.021-.15.028-.227a2.927,2.927,0,0,0-.176-1.262c-.128-.34-.322-.641-.45-.978-.2-.511-.248-1.09-.488-1.578a1.74,1.74,0,0,0-2.132-.917c-.371.145-.694.43-1.073.558a3.362,3.362,0,0,1-1.57-.035,1.864,1.864,0,0,0-1.524.278c-.484.416-.617,1.2-1.073,1.655a2.5,2.5,0,0,1-.357.284c-.092.067-.186.133-.272.209a1.072,1.072,0,0,0-.317.454.372.372,0,0,0-.012.039.339.339,0,0,0-.012.047.528.528,0,0,1-.008.053.2.2,0,0,0,0,.037.675.675,0,0,0,0,.082h0v.014a.547.547,0,0,0,.014.091v.025a.464.464,0,0,0,.021.075.075.075,0,0,1,0,.015.824.824,0,0,0,.031.082.134.134,0,0,0,.015.041.168.168,0,0,1,.015.034,2.226,2.226,0,0,1,.159.416.5.5,0,0,1-.016.277.452.452,0,0,1-.069.121,1.5,1.5,0,0,1-.12.141,3.8,3.8,0,0,0-.774,1.308c-.019.056-.037.113-.055.169h0l.023.007.022.006a.719.719,0,0,0,.128.028.733.733,0,0,0,.086.01,1.259,1.259,0,0,0,.35-.029.508.508,0,0,0,.057-.014h0l.017-.006h.011a1.791,1.791,0,0,0,.281-.1c.021-.01.044-.019.065-.031v.422a4.3,4.3,0,0,0,2.056,3.469c.061.037.121.073.183.105.005.039.011.078.015.113s.009.065.012.1l-.047-.046a.3.3,0,0,0-.128-.027.392.392,0,0,0-.2.056.773.773,0,0,0-.267.276,1.91,1.91,0,0,1-.839.68s-3.112.521-3.234.951l-1.455.091s-.514.071-.564,1.2v.026c-.007.135-.017.255-.029.363v.016c-.09.754-.294.835-.294.835a4.449,4.449,0,0,0-.548,1.689.063.063,0,0,1,0,.014h0a.784.784,0,0,1-.014.232,1.015,1.015,0,0,1-.448.611l-.068,1.021s-.564-.09-.719.611a2.478,2.478,0,0,1-.429,1.021s-.941.827-.993,1.526l-.583.378s-1.351-.323-1.66-.9c0,0-.036-.039-.094-.094l-.009-.014a.032.032,0,0,0,0,.007,4.858,4.858,0,0,0-.565-.527.47.47,0,0,1,.028.29l-.1-.113-.269-.318s-.385-.381-.927-.836h0q-.186-.157-.392-.32a5.452,5.452,0,0,0-2.146-1.177c-.013-.027-.064-.232-.186-.232a.2.2,0,0,0-.133.069,1.961,1.961,0,0,0-.012,2.767l.141.138.436.431,1.47,1.452c.018.014.035.028.054.041l.087.113.068.092.117.158.168.227c-.009.024-.018.047-.026.069-.063.163-.118.322-.163.467v.016c-.011.036-.021.07-.031.1a.148.148,0,0,1-.011.035c-.011.034-.019.068-.029.1a.5.5,0,0,0-.015.059.348.348,0,0,1-.011.035c-.048.18-.078.319-.094.4l-.114-.037.107.051a.128.128,0,0,1,0,.019l-.006.036c.033.017.068.033.107.049l.025.011.42.2h0c.085.04.177.082.276.129s.175.083.27.126h0a24.153,24.153,0,0,1,2.748,1.409,2.076,2.076,0,0,0,2.328.34,2.566,2.566,0,0,0,1.248-1.456,15.238,15.238,0,0,0,1.028-1.669c.026-.166.485-.353.7-.431l.02-.007.086-.029v.274a14.7,14.7,0,0,1-.156,2.405.014.014,0,0,0,0,.007,2.724,2.724,0,0,1-.171.6,43.552,43.552,0,0,0-1.129,4.779h.017a.473.473,0,0,1,.129-.007c-.015.073-.025.129-.032.168s-.011.058-.011.058h.013a.467.467,0,0,1,.124-.008.245.245,0,0,1,.042.006.719.719,0,0,1-.011.082v.028s-.006.035-.008.054c-.089.649-.347,2.337-.347,2.337a5.605,5.605,0,0,1-.275,1.257,3.277,3.277,0,0,0-.144.907c0,.057-.007.113-.012.172-.028.481-.032.931-.032.931l-.008.029L820.4,244.2a.327.327,0,0,0,.014.033h0c.018.036.047.1.089.176h0l.013.029a3.384,3.384,0,0,0,.594.885,1.575,1.575,0,0,0,.18.162h0a.227.227,0,0,1-.007.04c0,.011-.007.043-.01.064a1.912,1.912,0,0,1-.121.454,1.589,1.589,0,0,0-.123.494h0a2.4,2.4,0,0,0-.011.367l-.014.067h0c-.037.185-.145.727-.2,1.168-.014.1-.027.2-.034.289a1.5,1.5,0,0,0,0,.253,2.2,2.2,0,0,1-.021.424,1.02,1.02,0,0,1-.014.125c-.058.4-.154.818-.154.818l-.308,3.124v.185a.374.374,0,0,1-.007.082c0,.074-.011.161-.018.263a1.049,1.049,0,0,1-.006.113.617.617,0,0,1-.007.108v.059a.568.568,0,0,1-.005.09.457.457,0,0,0,0,.086v.081c-.01.167-.02.347-.028.53v.175a1.374,1.374,0,0,1-.008.175v1.155a3.472,3.472,0,0,0,.026.361c.012.088.02.181.025.277v.132c0,.022,0,.044,0,.066v.508c-.027.39-.077.707-.085.756h0v.107c0,.028.006.065.01.1v.057h0a.237.237,0,0,0,.006.066c.006.023,0,.022,0,.034,0,.041.006.083.011.127s.01.092.013.14l.007.09c0,.043.009.088.012.133v.045c0,.031.006.06.008.092l.01.139c0,.031.006.062.009.093a.345.345,0,0,1,0,.048l.014.184a.527.527,0,0,0,.005.091c0,.048.006.1.011.142s0,.1.008.152a1.065,1.065,0,0,1,.006.138,2.033,2.033,0,0,1,0,.384c-.028.129-.118.491-.17.883,0,.035-.01.07-.013.107a.428.428,0,0,0,0,.064l-.006.085c0,.068-.008.137-.008.2a1.668,1.668,0,0,0,.048.454,2.253,2.253,0,0,1,.054.3.161.161,0,0,0,.005.05c0,.036.008.074.011.113s.005.077.008.113c0,.079.006.161.009.244v.164c.008.479-.014.947-.02,1.067v.03s.107,2.013.222,2.658c.015.085.026.171.033.26a.608.608,0,0,0,.005.1,5.349,5.349,0,0,1-.073,1.116,12.9,12.9,0,0,1-.171,1.382.92.92,0,0,0-.153.535v.009a1.8,1.8,0,0,0,.563,1.343l.052.053.062-.025c.5-.189,1-.387,1.5-.587.264-.108.528-.216.791-.327q.974-.407,1.931-.837h0a.128.128,0,0,1-.061-.082,3.893,3.893,0,0,1,.078-1.266c.03-.132.308-2.929.308-2.929a3.83,3.83,0,0,1,.034-1.255,6.318,6.318,0,0,0-.172-1.834.337.337,0,0,1,.086-.395,8.442,8.442,0,0,0,.12-2.138s-.017-.971-.017-1.223a4.68,4.68,0,0,1,.393-1.474,3.053,3.053,0,0,0,.07-1.259h0l.011-.073a.765.765,0,0,1,.015-.1l.016-.1a13.9,13.9,0,0,1,.333-1.559c.223-.754.48-2.083.48-2.083l1.5-4.243h0l.049-.132.018-.052a7.183,7.183,0,0,1,.735,2.767,16.878,16.878,0,0,1,.138,2.03c-.05.431.154,2.461.154,2.461s.221,2.911.221,3.036a18.591,18.591,0,0,0,.446,2.7,2.5,2.5,0,0,1-.273,1.491,24.4,24.4,0,0,0,.034,2.749s-.259,2.083-.309,2.514c-.01.078-.025.2-.041.34,1.717-.871,3.417-1.791,5.055-2.79l.215-.129.012-2.578a6.875,6.875,0,0,0-.017-1.69,2.989,2.989,0,0,1-.085-1.669c.189-.252.017-1.419.017-1.419a15.142,15.142,0,0,1,.257-3.072,28.422,28.422,0,0,0,.172-4.473l.067-2.534s.546-.547.429-3.378v-.1a4.257,4.257,0,0,1,1.371.026,2.64,2.64,0,0,0,1.793.61h0a.849.849,0,0,0,.328-.144,9.744,9.744,0,0,0,.858-.7l-.273-4.846h0l-.029-.539c.051.083.1.156.135.227.107.172.166.278.166.278,0-.754,2.02-3.2,2.02-3.2a34.491,34.491,0,0,1,2.293-2.875,9.24,9.24,0,0,0,1.216-1.922,8.055,8.055,0,0,1,.411-.9C845.916,230.058,845.3,229.195,845.366,229Zm-6.025,3.449a1.155,1.155,0,0,1-.227.484c-.009-.113-.017-.219-.026-.332v-.029c-.12-1.581-.249-3.493-.19-3.68a4.638,4.638,0,0,0,.071-.928h0c.007-.434,0-.848,0-.848h0l.019-.028a9.144,9.144,0,0,0,1.417,2.456s.189.575.411.593.136.754.136.754a.783.783,0,0,0-.292.113,2.55,2.55,0,0,0-.3.217h0A3.483,3.483,0,0,0,839.341,232.446Z" transform="translate(-726.431 -190.361)" fill="url(#linear-gradient)"/>
  <path id="Path_298" data-name="Path 298" d="M837,398.817s.624-3.459,2.631-3.477l1.468,3.191-.987.709A8.719,8.719,0,0,1,837,398.817Z" transform="translate(-749.918 -358.699)" fill="#65617d"/>
  <path id="Path_299" data-name="Path 299" d="M841.094,398.553l-.983.713a10.988,10.988,0,0,1-2.564-.227,2.823,2.823,0,0,1-.547-.2.222.222,0,0,1,.011-.056.084.084,0,0,1,0-.014,8.2,8.2,0,0,1,.38-1.27c.061-.155.132-.315.207-.475a3.187,3.187,0,0,1,1.272-1.474,1.669,1.669,0,0,1,.669-.185h.089l.033.07.5,1.078Z" transform="translate(-749.918 -358.726)" opacity="0.1"/>
  <path id="Path_300" data-name="Path 300" d="M1017.714,472.786a10.681,10.681,0,0,1,2.294-.053c.186.16,1.383.981,2.092.464s.236-2.318.236-2.389-.068-2.621-.068-2.621l-1.265-1.8-1.586-3.155-3.238-.34.084,5.01-.016,2.568Z" transform="translate(-909.872 -418.589)" fill="#65617d"/>
  <path id="Path_301" data-name="Path 301" d="M1017.714,472.786a10.681,10.681,0,0,1,2.294-.053c.186.16,1.383.981,2.092.464s.236-2.318.236-2.389-.068-2.621-.068-2.621l-1.265-1.8-1.586-3.155-3.238-.34.084,5.01-.016,2.568Z" transform="translate(-909.872 -418.589)" opacity="0.1"/>
  <path id="Path_302" data-name="Path 302" d="M817.534,368.855s-.166,2.175-1.454,2.209a10.066,10.066,0,0,1-.852-.618c-1.127-.89-2.913-2.6-2.42-4.2.708-2.282,4.149,1.928,4.149,1.928l.265.313Z" transform="translate(-728.247 -332.308)" fill="#a5636d"/>
  <path id="Path_303" data-name="Path 303" d="M837.473,391.656s-.166,2.175-1.454,2.209a10.054,10.054,0,0,1-.852-.618l-.107-.149a1.607,1.607,0,0,0,.7.2.937.937,0,0,0,.917-.611,8.089,8.089,0,0,0,.355-.863,2.718,2.718,0,0,0,.129-.535Z" transform="translate(-748.186 -355.109)" opacity="0.1"/>
  <path id="Path_304" data-name="Path 304" d="M837.755,394.187l-.289-.392-.966-1.321-.5-.675a1.6,1.6,0,0,0,.7.2.935.935,0,0,0,.917-.611,7.871,7.871,0,0,0,.355-.863c.16-.481.157-.728.1-.812a5.26,5.26,0,0,1,.558.524l.008.007.092.093.035.073.488,1.033v.043C839.3,391.812,839.465,393.892,837.755,394.187Z" transform="translate(-749.025 -353.7)" fill="#e7effd"/>
  <path id="Path_305" data-name="Path 305" d="M902.573,517.8a.487.487,0,0,0-.1-.07h-.009c-.2-.09-.017-1.2.017-1.338s.3-2.9.3-2.9a3.97,3.97,0,0,1,.034-1.247,6.422,6.422,0,0,0-.169-1.815.348.348,0,0,1,.085-.392,8.659,8.659,0,0,0,.118-2.122s-.016-.962-.016-1.212a4.62,4.62,0,0,1,.387-1.462,3,3,0,0,0,.068-1.248h0l.01-.073c.005-.026.01-.06.015-.1l.016-.1a.485.485,0,0,1,.012-.073c.01-.057.02-.113.032-.186.006-.041.014-.084.022-.127.025-.136.054-.286.085-.439.009-.048.02-.1.031-.144s.026-.113.04-.172c.009-.035.016-.069.026-.1.025-.1.052-.205.081-.3.215-.75.473-2.069.473-2.069l1.568-4.353.018-.052.049.1h0a6.966,6.966,0,0,1,.675,2.644,16.574,16.574,0,0,1,.135,2.014c-.052.426.153,2.443.153,2.443s.214,2.887.214,3.012a18.727,18.727,0,0,0,.439,2.692,2.464,2.464,0,0,1-.271,1.474,24.1,24.1,0,0,0,.034,2.729s-.253,2.067-.3,2.495c-.011.1-.032.273-.055.483l.13-.065.018-.01c1.717-.871,3.417-1.791,5.055-2.79l.014-2.734a6.931,6.931,0,0,0-.016-1.676,3.026,3.026,0,0,1-.086-1.659c.184-.251.018-1.407.018-1.407a15.165,15.165,0,0,1,.252-3.048,28.49,28.49,0,0,0,.17-4.44l.067-2.513s.55-.555.421-3.449c-.014-.308-.035-.643-.065-1.008-.093-1.092-.188-2.081-.273-2.937-.008-.074-.015-.146-.023-.217-.008-.1-.019-.189-.028-.281-.02-.194-.04-.38-.059-.557-.006-.052-.012-.1-.017-.154q-.042-.381-.078-.7c-.009-.084-.019-.167-.028-.245-.014-.113-.027-.227-.039-.332a.594.594,0,0,0-.01-.075.981.981,0,0,0-.015-.13c-.056-.463-.089-.716-.089-.716h-.015l-1.7.016-3.7.037h-.108l-1.931.019h-.118l-.927.01h-.158l-1.931.019H901.4l-.793,3.454-1.619,3.923s-.025.43-.081.849v.025a.086.086,0,0,1-.006.041.317.317,0,0,0-.01.063,2.306,2.306,0,0,1-.136.555,1.441,1.441,0,0,0-.107.391,2.41,2.41,0,0,0-.025.434h0v.024s-.129.618-.2,1.144c-.014.1-.027.2-.034.289a1.945,1.945,0,0,0-.015.332,1.956,1.956,0,0,1-.012.34,1,1,0,0,1-.014.125c-.053.417-.159.885-.159.885l-.3,3.1a.071.071,0,0,1,0,.01v.129a.377.377,0,0,1-.006.082c0,.074-.011.161-.018.263a1.069,1.069,0,0,1-.006.113.628.628,0,0,1-.006.108v.059a.562.562,0,0,1-.005.09.452.452,0,0,0,0,.086v.081c-.008.167-.019.347-.027.53v.175a1.408,1.408,0,0,1-.007.175v1.164a3.235,3.235,0,0,0,.026.379c.011.084.019.17.024.259v.705c-.027.39-.077.707-.085.757h0v.107c0,.028.007.065.01.1v.057h0a.237.237,0,0,0,.006.066c.006.023,0,.022,0,.034,0,.041.006.083.011.127s.009.092.013.139l.007.09c0,.043.008.089.012.133v.045c0,.031.006.06.009.092l.01.139c0,.031.006.062.009.093v.048l.014.184a.521.521,0,0,0,.005.091c0,.048.007.1.011.142s0,.1.008.152a1.045,1.045,0,0,1,.006.138,2.116,2.116,0,0,1,0,.372,9.1,9.1,0,0,0-.167.9c0,.035-.01.07-.013.107a.41.41,0,0,0,0,.063l-.007.085c0,.068-.007.137-.007.2a1.651,1.651,0,0,0,.048.428,2.494,2.494,0,0,1,.059.377c.009.073.014.15.019.227s.006.161.009.244v.164c.006.539-.021,1.054-.021,1.054a.127.127,0,0,0,0,.014v.009c.011.227.107,2.015.214,2.617a2.872,2.872,0,0,1,.038.322.586.586,0,0,0,.005.1,5.5,5.5,0,0,1-.076,1.042,13.137,13.137,0,0,1-.208,1.385,1.007,1.007,0,0,0-.151.62v.009a1.809,1.809,0,0,0,.557,1.247l.12.127c.5-.189,1-.387,1.5-.588.264-.108.528-.215.791-.327q.974-.407,1.931-.837Z" transform="translate(-804.051 -437.872)" fill="#3f3d56"/>
  <path id="Path_306" data-name="Path 306" d="M978.651,281.849l-2.5,2.818s-3.2-1.361-2.867-1.815a2.789,2.789,0,0,0,.034-1.37c-.118-.988-.371-2.125-.371-2.125s5.6-.963,5.127.036a1.725,1.725,0,0,0-.035,1.184A4.589,4.589,0,0,0,978.651,281.849Z" transform="translate(-871.281 -255.5)" fill="#a5636d"/>
  <path id="Path_307" data-name="Path 307" d="M978.077,279.356c-.172.364-.254.4-.147.794a4.108,4.108,0,0,1-2.821,1.739,3.82,3.82,0,0,1-1.788-.442c-.118-.988-.371-2.125-.371-2.125S978.55,278.357,978.077,279.356Z" transform="translate(-871.281 -255.467)" opacity="0.1"/>
  <path id="Path_308" data-name="Path 308" d="M963.68,233.444a4.021,4.021,0,1,1-8.03,0v-.061a4.021,4.021,0,1,1,8.029.061Z" transform="translate(-855.837 -211.375)" fill="#a5636d"/>
  <path id="Path_309" data-name="Path 309" d="M941.953,495.321c-.536,0-2.3.02-4.281.053h-.025l-.653.011h-.02c-2.347.04-4.659-.445-5.587-.353-1.974.2.708-1.928.708-1.928a15.671,15.671,0,0,0,4.5.481l.568-.032a22.9,22.9,0,0,0,4.538-.584C941.761,493.523,941.856,494.325,941.953,495.321Z" transform="translate(-833.529 -445.257)" opacity="0.1"/>
  <path id="Path_310" data-name="Path 310" d="M941.953,494.381c-.536,0-2.3.019-4.281.053h-.025l-.653.011h-.02c-2.347.04-4.659-.445-5.587-.353-1.974.2.708-1.928.708-1.928a15.644,15.644,0,0,0,4.5.48l.568-.031a22.989,22.989,0,0,0,4.538-.584C941.761,492.583,941.856,493.388,941.953,494.381Z" transform="translate(-833.529 -444.424)" fill="#5f5d7e"/>
  <path id="Path_311" data-name="Path 311" d="M937.258,309.964l-3.1,1.533L931.76,331.07s1.416-.68,2.226-.249,3.306.036,3.306.036a7.06,7.06,0,0,1,2.091.107c.267.22,3.442-.891,3.442-.891s.573-1.355.134-1.568.135-2.322.135-2.322l-.269-14.121-.536-1.815-1.451-.927-1.484,1.247-.708.108Z" transform="translate(-834.51 -282.435)" opacity="0.1"/>
  <path id="Path_312" data-name="Path 312" d="M937.258,308.089l-3.1,1.533L931.76,329.2s1.416-.68,2.226-.249,3.306.035,3.306.035a7.3,7.3,0,0,1,2.091.107c.267.213,3.442-.891,3.442-.891s.573-1.354.134-1.568.135-2.318.135-2.318l-.269-14.121-.536-1.815-1.451-.928-1.484,1.247-.708.107Z" transform="translate(-834.51 -280.777)" fill="#e7effd"/>
  <path id="Path_313" data-name="Path 313" d="M962.507,318.866a6.154,6.154,0,0,1,.878,1.355c-.017.232-.05.784-.05.784l-.67,1.445s-.371,1.8-.371,2.175-.59,3.619-.59,3.619l-.708,4.99-.895,6.544.911,1.658,1.08-.963,1.432-11.658.3-2.3s.322-4.136.322-4.564a15.358,15.358,0,0,0-.186-1.551,1.808,1.808,0,0,1,1.131-1.319c.911-.249-.068-.054-.068-.054l-.523-.446-.456.2S962.777,318.367,962.507,318.866Z" transform="translate(-859.81 -290.645)" opacity="0.1"/>
  <path id="Path_314" data-name="Path 314" d="M961.513,317.926a6.211,6.211,0,0,1,.878,1.354c-.016.231-.051.785-.051.785l-.675,1.445s-.371,1.8-.371,2.174-.59,3.62-.59,3.62l-.709,4.99-.894,6.543.911,1.658,1.079-.963,1.432-11.657.3-2.3s.322-4.136.322-4.565a15.3,15.3,0,0,0-.185-1.55,1.8,1.8,0,0,1,1.13-1.32c.915-.249-.067-.053-.067-.053l-.524-.446-.455.2S961.784,317.426,961.513,317.926Z" transform="translate(-858.917 -289.811)" fill="#0085ca"/>
  <path id="Path_315" data-name="Path 315" d="M970.475,303.65s-.135.107-.168.82a14.918,14.918,0,0,1-.506,2.318s1.754-1.284,2.632-1.141Z" transform="translate(-868.469 -277.408)" opacity="0.1"/>
  <path id="Path_316" data-name="Path 316" d="M970.475,301.76s-.135.108-.168.82a14.952,14.952,0,0,1-.506,2.318s1.754-1.284,2.632-1.141Z" transform="translate(-868.469 -275.732)" fill="#e7effd"/>
  <path id="Path_317" data-name="Path 317" d="M997.762,298.62,995,301.188A28.567,28.567,0,0,1,997.632,303c.3.353.607-3.494.607-3.494Z" transform="translate(-890.965 -272.948)" opacity="0.1"/>
  <path id="Path_318" data-name="Path 318" d="M998.666,296.73,995.9,299.3a28.554,28.554,0,0,1,2.631,1.814c.3.353.607-3.5.607-3.5Z" transform="translate(-891.768 -271.273)" fill="#e7effd"/>
  <path id="Path_319" data-name="Path 319" d="M910.047,303.439s-.3-.161-.59.3a1.929,1.929,0,0,1-.826.68s-3.071.517-3.189.945l-1.433.089s-.506.065-.554,1.2-.322,1.229-.322,1.229a4.385,4.385,0,0,0-.536,1.676.933.933,0,0,1-.456.856l2.113,5.788a11.421,11.421,0,0,1-.322,3.263,43.182,43.182,0,0,0-1.114,4.743s.3-.071.286.143-.371,2.549-.371,2.549a5.392,5.392,0,0,1-.269,1.247,9.585,9.585,0,0,0-.186,2L902,331.359s.644,1.515,1.62,1.3,2.749-4.261,2.749-4.261l1.13-4.367.878-4.315.253-2.924.4-6.472.59-4.279S910.286,303.741,910.047,303.439Z" transform="translate(-807.943 -277.196)" opacity="0.1"/>
  <path id="Path_320" data-name="Path 320" d="M909.146,301.552s-.3-.16-.59.3a1.93,1.93,0,0,1-.827.68s-3.07.517-3.188.945l-1.434.09s-.506.071-.557,1.194-.322,1.23-.322,1.23a4.4,4.4,0,0,0-.536,1.676.932.932,0,0,1-.455.855l2.105,5.791a11.421,11.421,0,0,1-.322,3.263,43.113,43.113,0,0,0-1.113,4.743s.3-.071.286.143-.371,2.549-.371,2.549a5.389,5.389,0,0,1-.269,1.248,9.589,9.589,0,0,0-.186,2l-.268,1.218s.644,1.515,1.619,1.3,2.75-4.262,2.75-4.262l1.13-4.367.878-4.31.252-2.924.405-6.471.59-4.279S909.382,301.856,909.146,301.552Z" transform="translate(-807.14 -275.524)" fill="#65617d"/>
  <path id="Path_321" data-name="Path 321" d="M840.22,397.667l-.983.713a10.985,10.985,0,0,1-2.564-.227l-.545-.255-.107-.051.113.037a2.113,2.113,0,0,0,1.35.051c1.385-.492,1.232-2.909,1.18-3.456a.522.522,0,0,0-.011-.1.032.032,0,0,1,0-.007l.009.014a.65.65,0,0,0,.063.094.717.717,0,0,0,.062.069h0l.488,1.033v.043Z" transform="translate(-749.043 -357.839)" opacity="0.1"/>
  <path id="Path_322" data-name="Path 322" d="M844.449,362l-.472.143-.068,1.021s-.557-.088-.708.607a2.54,2.54,0,0,1-.422,1.021s-.928.82-.979,1.515l-.574.374s-1.333-.321-1.636-.891c0,0,.607,4.6-2.631,3.477,0,0,3.627,1.676,3.8,1.908a2.046,2.046,0,0,0,2.294.34,2.551,2.551,0,0,0,1.232-1.462,15.06,15.06,0,0,0,1.012-1.658c.033-.214.793-.464.793-.464l1.451-3.707Z" transform="translate(-749.882 -329.141)" fill="#65617d"/>
  <path id="Path_323" data-name="Path 323" d="M1014.335,299.083l.489-2.353a2.746,2.746,0,0,0,.439.945c.224.178.725.589.725.589a4.068,4.068,0,0,0,.977.357,5.65,5.65,0,0,1,1.789.567c.168.193.843.053.843.053s.557.2,1.046.321.725.981.623,1.319a1.072,1.072,0,0,0,.236.963,2.37,2.37,0,0,1,.3.907,1.007,1.007,0,0,1,.574.517,3.794,3.794,0,0,1,.118,1.248l-2.513,3.743a11.531,11.531,0,0,1-.068,1.765c-.1.321.354,5.777.354,5.777l.522,9.378a9.407,9.407,0,0,1-.843.7,23.528,23.528,0,0,1-.3-3.441c0-.125-3.9-6.169-3.9-6.169a5.653,5.653,0,0,1-.524-1.088c0-.2-.489-2-.489-2L1014,309.71Z" transform="translate(-907.926 -271.273)" opacity="0.1"/>
  <path id="Path_324" data-name="Path 324" d="M1024.378,304.282c0,.122-.006.2-.006.2l-2.512,3.743h0a11.532,11.532,0,0,1-.066,1.766c-.059.186.07,2.1.189,3.68.085,1.134.165,2.1.165,2.1l.221,3.978.3,5.4a9.56,9.56,0,0,1-.842.7,23.684,23.684,0,0,1-.3-3.442c0-.126-3.9-6.171-3.9-6.171a5.673,5.673,0,0,1-.522-1.089c0-.2-.489-2-.489-2l-.741-3.476.337-10.626.286-2.353a5.042,5.042,0,0,0,.644.945c.222.177.724.589.724.589a4.06,4.06,0,0,0,.979.357,5.654,5.654,0,0,1,1.789.567c.169.193.843.053.843.053s.556.2,1.045.321.725.981.624,1.319a1.07,1.07,0,0,0,.236.963,2.387,2.387,0,0,1,.3.907,1.009,1.009,0,0,1,.574.517A3.227,3.227,0,0,1,1024.378,304.282Z" transform="translate(-909.596 -271.237)" fill="#65617d"/>
  <path id="Path_325" data-name="Path 325" d="M905.38,782.739c-.263.113-.527.219-.791.327-.827-.255-1.6-.556-1.6-.556A20.786,20.786,0,0,1,905.38,782.739Z" transform="translate(-808.827 -701.961)" opacity="0.1"/>
  <path id="Path_326" data-name="Path 326" d="M999.67,700.6s2.007.5,2.126.838Z" transform="translate(-895.134 -629.34)" opacity="0.1"/>
  <path id="Path_327" data-name="Path 327" d="M923.558,714.12s-1.046.321-.033.963S923.558,714.12,923.558,714.12Z" transform="translate(-826.765 -641.327)" opacity="0.1"/>
  <path id="Path_328" data-name="Path 328" d="M970.74,559.643c.118,0,1.957-.642,2.6-.356a4.056,4.056,0,0,0,1.435.285Z" transform="translate(-869.308 -503.988)" opacity="0.1"/>
  <path id="Path_329" data-name="Path 329" d="M953.093,573.3l-.018.177-1.573,4.348s-.253,1.319-.473,2.067a14.251,14.251,0,0,0-.328,1.548l1.395-9.125Z" transform="translate(-851.418 -515.608)" opacity="0.1"/>
  <path id="Path_330" data-name="Path 330" d="M986.977,499.018l-.654.011h-.02l-.383-1.8c.188-.009.378-.019.568-.032Z" transform="translate(-882.859 -449.007)" fill="#3f3d56"/>
  <path id="Path_331" data-name="Path 331" d="M1013.478,480.63l-.419.366-1.4,1.221s-3.8,2.14-4.84.107c-.922-1.791,3.381-3.069,4.417-3.348.141-.037.221-.057.221-.057Z" transform="translate(-901.403 -432.801)" fill="#a5636d"/>
  <path id="Path_332" data-name="Path 332" d="M918.87,339.49s.742.357.91.856S918.87,339.49,918.87,339.49Z" transform="translate(-823.003 -309.183)" opacity="0.1"/>
  <path id="Path_333" data-name="Path 333" d="M891.262,386.66s-1.079,1.39-.644,1.928S891.262,386.66,891.262,386.66Z" transform="translate(-797.691 -351.004)" opacity="0.1"/>
  <path id="Path_334" data-name="Path 334" d="M1068.626,346.41s-1.012.107-1.046,1.034Z" transform="translate(-955.757 -315.319)" opacity="0.1"/>
  <path id="Path_335" data-name="Path 335" d="M989.92,448.407c.107-.107,2.429-3.742,2.969-3.423Z" transform="translate(-886.43 -402.696)" opacity="0.1"/>
  <path id="Path_336" data-name="Path 336" d="M963.68,233.48a4.422,4.422,0,0,1-.475,2h-.03c-.254-.057-.386-.37-.581-.567a.758.758,0,0,0-.911-.135.993.993,0,0,0-.448.915c-.129-.567-.088-1.178-.214-1.75s-.5-1.151-1.02-1.161c-.223,0-.483.087-.644-.09a2.077,2.077,0,0,1-.19-.4c-.37-.632-1.495-.312-1.954.012a12.012,12.012,0,0,1-1.563,1.119,4.021,4.021,0,1,1,8.029.061Z" transform="translate(-855.837 -211.41)" opacity="0.1"/>
  <path id="Path_337" data-name="Path 337" d="M950.625,214.27a2.084,2.084,0,0,0,.19.4c.161.176.421.085.644.09.517.009.895.589,1.02,1.16s.085,1.179.215,1.75a.994.994,0,0,1,.448-.914.757.757,0,0,1,.91.135c.194.2.322.508.581.567s.5-.2.592-.485a8.088,8.088,0,0,0,.145-.888,12.218,12.218,0,0,1,.644-1.541,2.938,2.938,0,0,0-.017-1.991c-.127-.34-.314-.636-.443-.971-.193-.508-.245-1.081-.481-1.565a1.7,1.7,0,0,0-2.1-.907c-.367.146-.686.429-1.058.555a3.31,3.31,0,0,1-1.547-.034,1.829,1.829,0,0,0-1.5.276c-.477.413-.608,1.189-1.057,1.642-.189.191-.423.312-.621.488a.916.916,0,0,0-.348.724c.03.37.372.705.246,1.047a.823.823,0,0,1-.188.261,3.8,3.8,0,0,0-.817,1.469c.9.3,1.88-.754,2.587-1.248C949.132,213.958,950.256,213.637,950.625,214.27Z" transform="translate(-847.294 -193.499)" fill="#4c3e42"/>
  <path id="Path_338" data-name="Path 338" d="M1050.72,480.621l-.419.366a12.665,12.665,0,0,0-1.891-1.954l.066-.067c.14-.037.221-.057.221-.057Z" transform="translate(-938.644 -432.792)" opacity="0.1"/>
  <path id="Path_339" data-name="Path 339" d="M1051.965,475.523s-.151.4-.307.741-.322.654-.335.4c-.017-.5-1.973-2.176-1.973-2.176l.265-.272.308-.316Z" transform="translate(-939.483 -428.35)" fill="#e7effd"/>
  <path id="Path_340" data-name="Path 340" d="M1052.166,448.6l.221,3.978c-.524-.861-1.962-3.069-2.887-3l2.244-2.722a3.1,3.1,0,0,0,.258-.349C1052.086,447.642,1052.166,448.6,1052.166,448.6Z" transform="translate(-939.617 -404.066)" opacity="0.1"/>
  <path id="Path_341" data-name="Path 341" d="M1054.205,475.523s-.151.4-.307.741c-.588-.853-1.4-1.859-2.039-2.047l.308-.316Z" transform="translate(-941.724 -428.35)" opacity="0.1"/>
  <path id="Path_342" data-name="Path 342" d="M1054.633,361l.607.5s1.012.018,1.113.907a1.826,1.826,0,0,0,1.029,1.3s.692.73.692,1.069.522.945.522,1a6.071,6.071,0,0,1,.439,1.337c-.068.2.537,1.052.354,1.373a8.062,8.062,0,0,0-.4.891,9.087,9.087,0,0,1-1.2,1.908,33.656,33.656,0,0,0-2.26,2.852s-1.99,2.425-1.99,3.175c0,0-1.94-3.424-3.087-3.334l2.244-2.727a1.843,1.843,0,0,0,.4-.713c.017-.268,1.08-1.5,1.586-1.551,0,0,.084-.731-.135-.749s-.4-.589-.4-.589-1.485-1.854-1.5-3.031S1054.633,361,1054.633,361Z" transform="translate(-940.465 -328.254)" fill="#65617d"/>
  <path id="Path_343" data-name="Path 343" d="M1088.149,376s-1.417,1.1-1.114,1.462S1088.149,376,1088.149,376Z" transform="translate(-973.087 -341.553)" opacity="0.1"/>
  <path id="Path_344" data-name="Path 344" d="M1098.4,413.113s2.631-.892,2.9,0Z" transform="translate(-983.271 -374.105)" opacity="0.1"/>
  <path id="Path_345" data-name="Path 345" d="M921.882,374.08s0,4.065-.329,4.466S921.882,374.08,921.882,374.08Z" transform="translate(-825.316 -339.85)" opacity="0.1"/>
  <path id="Path_346" data-name="Path 346" d="M1067.11,385.63l.489,1.453S1067.793,385.657,1067.11,385.63Z" transform="translate(-955.338 -350.091)" opacity="0.1"/>
  <g id="Group_275" data-name="Group 275" transform="translate(98.79 18.935)" opacity="0.1">
    <path id="Path_347" data-name="Path 347" d="M953.524,240.241c.123-.335-.2-.662-.242-1.021a.714.714,0,0,0-.054.322,7.433,7.433,0,0,0,.261.773A.461.461,0,0,0,953.524,240.241Z" transform="translate(-952.464 -239.22)"/>
    <path id="Path_348" data-name="Path 348" d="M952.773,252.87c-.121-.567-.086-1.158-.208-1.719s-.5-1.152-1.02-1.161c-.223,0-.483.086-.644-.09a2.076,2.076,0,0,1-.19-.4c-.369-.632-1.494-.312-1.954.012-.69.484-1.637,1.5-2.523,1.269-.042.108-.082.217-.115.329.9.3,1.88-.754,2.587-1.248.46-.323,1.584-.644,1.954-.011a2.082,2.082,0,0,0,.19.4c.161.176.421.085.644.09.517.009.895.589,1.021,1.16s.085,1.179.215,1.75A1.02,1.02,0,0,1,952.773,252.87Z" transform="translate(-946.12 -248.009)"/>
    <path id="Path_349" data-name="Path 349" d="M1010.708,273.751c-.092.284-.333.543-.592.485s-.386-.37-.581-.567a.76.76,0,0,0-.911-.134.984.984,0,0,0-.447.863.922.922,0,0,1,.4-.516.756.756,0,0,1,.91.135c.194.2.322.508.581.567s.5-.2.592-.485a2.619,2.619,0,0,0,.092-.513A1.679,1.679,0,0,1,1010.708,273.751Z" transform="translate(-1001.518 -269.56)"/>
    <path id="Path_350" data-name="Path 350" d="M1033.393,251.685a10.711,10.711,0,0,0-.644,1.54c-.024.113-.036.227-.049.34a12.146,12.146,0,0,1,.644-1.536,2.814,2.814,0,0,0,.156-.739A2.714,2.714,0,0,1,1033.393,251.685Z" transform="translate(-1023.41 -249.921)"/>
  </g>
  <ellipse id="Ellipse_91" data-name="Ellipse 91" cx="0.042" cy="0.044" rx="0.042" ry="0.044" transform="translate(84.355 33.52)" fill="#e6e8ec"/>
  <path id="Path_351" data-name="Path 351" d="M497.7,583.553a2.567,2.567,0,0,1,2.407-.34s-.343.769-1.867.759Z" transform="translate(-447.023 -525.105)" fill="#0085ca"/>
  <path id="Path_352" data-name="Path 352" d="M495.917,588.09a2.964,2.964,0,0,0,.644,2.473s.536-.635-.072-2.113Z" transform="translate(-445.387 -529.59)" fill="#0085ca"/>
  <path id="Path_353" data-name="Path 353" d="M481.75,568.186s.044-1.267,2.758-.957a1.368,1.368,0,0,1-.891,1.24A1.5,1.5,0,0,1,481.75,568.186Z" transform="translate(-432.785 -511.051)" fill="#0085ca"/>
  <path id="Path_354" data-name="Path 354" d="M476,576s-1.127.433-.013,3.068a1.341,1.341,0,0,0,.841-1.278A1.68,1.68,0,0,0,476,576Z" transform="translate(-427.203 -518.871)" fill="#0085ca"/>
  <path id="Path_355" data-name="Path 355" d="M465.321,545.343s-.23-2.072,2.536-1.971a2.3,2.3,0,0,1-2.031,2.451Z" transform="translate(-418.114 -489.94)" fill="#0085ca"/>
  <path id="Path_356" data-name="Path 356" d="M447.58,526.081s.293-2.371,3.075-1.781c0,0,.084,2.041-2.605,2.324Z" transform="translate(-402.281 -472.951)" fill="#0085ca"/>
  <path id="Path_357" data-name="Path 357" d="M434.35,505.463a2.567,2.567,0,0,1,3.306-1.743,3.189,3.189,0,0,1-3.112,2.155Z" transform="translate(-390.47 -454.705)" fill="#0085ca"/>
  <path id="Path_358" data-name="Path 358" d="M421.76,484.555a2.487,2.487,0,0,1,3.194-1.8,3.26,3.26,0,0,1-3,2.2Z" transform="translate(-379.231 -436.116)" fill="#0085ca"/>
  <path id="Path_359" data-name="Path 359" d="M413.39,460.644s.37-2.929,2.855-2.387c0,0-.618,2.679-2.657,2.8Z" transform="translate(-371.759 -414.422)" fill="#0085ca"/>
  <path id="Path_360" data-name="Path 360" d="M405.35,437.916s.465-2.959,2.981-2.206c0,0-.875,2.814-2.79,2.608Z" transform="translate(-364.582 -394.383)" fill="#0085ca"/>
  <path id="Path_361" data-name="Path 361" d="M400.08,410.771s.8-2.973,2.727-2.971c0,0-.816,3.138-2.545,3.553Z" transform="translate(-359.877 -369.746)" fill="#0085ca"/>
  <path id="Path_362" data-name="Path 362" d="M396.45,385.936s.858-3.574,2.433-3.365c0,0-.585,2.729-2.361,3.913Z" transform="translate(-356.637 -347.371)" fill="#0085ca"/>
  <path id="Path_363" data-name="Path 363" d="M393.86,361.642s.818-2.983,2.361-3.162c0,0-.525,2.923-2.3,3.925Z" transform="translate(-354.325 -326.02)" fill="#0085ca"/>
  <path id="Path_364" data-name="Path 364" d="M391.19,337.962s1.046-2.994,2.066-3.1c0,0-.4,2.923-1.946,3.581Z" transform="translate(-351.941 -305.078)" fill="#0085ca"/>
  <path id="Path_365" data-name="Path 365" d="M389.13,312.057s.593-3.231,1.6-3.537c0,0-.044,2.624-1.491,3.772Z" transform="translate(-350.102 -281.726)" fill="#0085ca"/>
  <path id="Path_366" data-name="Path 366" d="M384.42,286.854s.653-2.582,1.466-3c0,0-.055,3.014-1.251,3.62Z" transform="translate(-345.898 -259.853)" fill="#0085ca"/>
  <path id="Path_367" data-name="Path 367" d="M378.1,255.934l-.313-4.494s1.664,3.334.452,5.28Z" transform="translate(-339.979 -231.119)" fill="#0085ca"/>
  <path id="Path_368" data-name="Path 368" d="M355.582,225.382a25.711,25.711,0,0,0-1.5-3.413,6.879,6.879,0,0,1,2.146,4.794Z" transform="translate(-318.813 -204.991)" fill="#0085ca"/>
  <path id="Path_369" data-name="Path 369" d="M449.581,560.65s-1.966-.191-1.8,2.729c0,0,1.779.227,2.268-2.207Z" transform="translate(-402.45 -505.26)" fill="#0085ca"/>
  <path id="Path_370" data-name="Path 370" d="M430.1,540.08s-2.261.084-1.968,3.062c0,0,1.91.281,2.435-2.52Z" transform="translate(-384.896 -487.025)" fill="#0085ca"/>
  <path id="Path_371" data-name="Path 371" d="M406.7,520.306s-2.089-.934-3.307,1.743a3.054,3.054,0,0,0,3.5-1.327Z" transform="translate(-362.832 -469.353)" fill="#0085ca"/>
  <path id="Path_372" data-name="Path 372" d="M394.041,498.131s-2.141-1-3.281,1.617a3.109,3.109,0,0,0,3.469-1.218Z" transform="translate(-351.557 -449.668)" fill="#0085ca"/>
  <path id="Path_373" data-name="Path 373" d="M383.424,473.949s-2.1-1.96-3.634.17c0,0,2.127,1.6,3.744.28Z" transform="translate(-341.764 -427.664)" fill="#0085ca"/>
  <path id="Path_374" data-name="Path 374" d="M376.182,449.029s-2.111-2.006-3.632.243c0,0,2.345,1.621,3.72.192Z" transform="translate(-335.301 -405.569)" fill="#0085ca"/>
  <path id="Path_375" data-name="Path 375" d="M373,417.573s-1.662-2.543-3.485-1.887c0,0,1.725,2.695,3.489,2.5Z" transform="translate(-332.596 -376.642)" fill="#0085ca"/>
  <path id="Path_376" data-name="Path 376" d="M370.491,391.261s-1.7-3.221-3.171-2.59c0,0,1.23,2.478,3.232,3.14Z" transform="translate(-330.632 -352.714)" fill="#0085ca"/>
  <path id="Path_377" data-name="Path 377" d="M367.975,367.8s-1.717-2.519-3.225-2.141c0,0,1.421,2.566,3.41,2.883Z" transform="translate(-328.338 -332.35)" fill="#0085ca"/>
  <path id="Path_378" data-name="Path 378" d="M372.907,339.475s-1.363-2.849-2.387-2.835c0,0,.709,2.856,2.32,3.324Z" transform="translate(-333.489 -306.656)" fill="#0085ca"/>
  <path id="Path_379" data-name="Path 379" d="M368.316,316.9s-1.5-2.88-2.556-2.843c0,0,.807,2.483,2.518,3.1Z" transform="translate(-329.24 -286.634)" fill="#0085ca"/>
  <path id="Path_380" data-name="Path 380" d="M369.85,291.3s-1.134-2.388-2.01-2.628c0,0,.63,2.941,1.918,3.277Z" transform="translate(-331.097 -264.127)" fill="#0085ca"/>
  <path id="Path_381" data-name="Path 381" d="M358.934,261.67,356.46,258s.734,3.688,2.841,4.372Z" transform="translate(-320.938 -236.935)" fill="#0085ca"/>
  <path id="Path_382" data-name="Path 382" d="M339.087,237.818a23.459,23.459,0,0,1-2.9-2.188s1.487,2.722,4.067,3.106Z" transform="translate(-302.842 -217.102)" fill="#0085ca"/>
  <path id="Path_383" data-name="Path 383" d="M327.84,223.605s-3.234-3.043-4.03-3.008a5.048,5.048,0,0,1,4.1,2.835Z" transform="translate(-291.791 -203.774)" fill="#0085ca"/>
  <path id="Path_384" data-name="Path 384" d="M363.052,252.946l-.114.02c-.762-4.826-1.717-7.657-2.7-7.973l.033-.113C361.311,245.211,362.271,248,363.052,252.946Z" transform="translate(-324.312 -225.303)" fill="#444053"/>
  <path id="Path_385" data-name="Path 385" d="M386.464,324.759l-.171.023c-.053-.454-.1-.914-.133-1.375-.309-4.008-.7-7.683-1.13-10.434l.094-.134c.429,2.755.9,6.539,1.208,10.547C386.367,323.851,386.412,324.313,386.464,324.759Z" transform="translate(-346.442 -285.556)" fill="#444053"/>
  <path id="Path_386" data-name="Path 386" d="M410.583,436.713a22.282,22.282,0,0,1-6.366-4.593,26.245,26.245,0,0,1-4.769-6.591,32.042,32.042,0,0,1-3.018-10.579l.182.082a28.477,28.477,0,0,0,7.756,16.9,22.115,22.115,0,0,0,6.3,4.551Z" transform="translate(-356.619 -376.086)" fill="#444053"/>
  <g id="Group_276" data-name="Group 276" transform="translate(47.398 11.321)" opacity="0.7">
    <path id="Path_387" data-name="Path 387" d="M548.25,573.235a2.564,2.564,0,0,1,2.393.43s-.544.627-2,.137Z" transform="translate(-539.547 -527.628)" fill="#0085ca"/>
    <path id="Path_388" data-name="Path 388" d="M543.919,574.25a2.98,2.98,0,0,0-.079,2.565s.69-.439.526-2.041Z" transform="translate(-535.372 -528.64)" fill="#0085ca"/>
    <path id="Path_389" data-name="Path 389" d="M536.46,554.163s.4-1.2,2.9-.047a1.315,1.315,0,0,1-1.2.907A1.53,1.53,0,0,1,536.46,554.163Z" transform="translate(-529.022 -510.348)" fill="#0085ca"/>
    <path id="Path_390" data-name="Path 390" d="M527.256,558s-1.2.06-.876,2.925a1.289,1.289,0,0,0,1.162-.955A1.714,1.714,0,0,0,527.256,558Z" transform="translate(-519.975 -514.233)" fill="#0085ca"/>
    <path id="Path_391" data-name="Path 391" d="M525.35,528.5s.365-2.05,2.976-1.084a2.214,2.214,0,0,1-2.629,1.7Z" transform="translate(-519.104 -486.889)" fill="#0085ca"/>
    <path id="Path_392" data-name="Path 392" d="M514.34,504.971s.948-2.172,3.434-.733c0,0-.492,1.97-3.141,1.4Z" transform="translate(-509.276 -466.132)" fill="#0085ca"/>
    <path id="Path_393" data-name="Path 393" d="M507.93,481.825s1.18-2.047,3.648-.625A3.079,3.079,0,0,1,508,482.284Z" transform="translate(-503.553 -445.697)" fill="#0085ca"/>
    <path id="Path_394" data-name="Path 394" d="M502,458.007a2.414,2.414,0,0,1,3.557-.712,3.14,3.14,0,0,1-3.489,1.152Z" transform="translate(-498.26 -424.517)" fill="#0085ca"/>
    <path id="Path_395" data-name="Path 395" d="M499.83,432.638s1.18-2.682,3.395-1.381c0,0-1.344,2.362-3.326,1.841Z" transform="translate(-496.322 -401.548)" fill="#0085ca"/>
    <path id="Path_396" data-name="Path 396" d="M499.2,408.458s1.277-2.679,3.467-1.168c0,0-1.628,2.411-3.4,1.607Z" transform="translate(-495.76 -380.205)" fill="#0085ca"/>
    <path id="Path_397" data-name="Path 397" d="M500.76,382.3s1.6-2.586,3.44-1.979c0,0-1.662,2.74-3.433,2.592Z" transform="translate(-497.153 -356.621)" fill="#0085ca"/>
    <path id="Path_398" data-name="Path 398" d="M503.053,356.809s1.824-3.143,3.27-2.446c0,0-1.327,2.42-3.353,2.993Z" transform="translate(-499.126 -333.601)" fill="#0085ca"/>
    <path id="Path_399" data-name="Path 399" d="M507.7,333.171s1.62-2.589,3.142-2.276c0,0-1.323,2.625-3.3,3.026Z" transform="translate(-503.205 -312.86)" fill="#0085ca"/>
    <path id="Path_400" data-name="Path 400" d="M513.45,309.148s1.842-2.53,2.845-2.312c0,0-1.2,2.665-2.866,2.808Z" transform="translate(-508.463 -291.542)" fill="#0085ca"/>
    <path id="Path_401" data-name="Path 401" d="M518.35,282.772s1.475-2.9,2.527-2.873c0,0-.781,2.495-2.487,3.132Z" transform="translate(-512.855 -267.671)" fill="#0085ca"/>
    <path id="Path_402" data-name="Path 402" d="M522.6,256.968s1.35-2.259,2.245-2.408c0,0-.9,2.861-2.214,3.062Z" transform="translate(-516.649 -245.206)" fill="#0085ca"/>
    <path id="Path_403" data-name="Path 403" d="M524.066,221.978l.966-4.388s.651,3.705-1.051,5.186Z" transform="translate(-517.881 -212.429)" fill="#0085ca"/>
    <path id="Path_404" data-name="Path 404" d="M520.375,186.121a26.13,26.13,0,0,0-.475-3.731,7.051,7.051,0,0,1,.7,5.251Z" transform="translate(-514.239 -181.221)" fill="#0085ca"/>
    <path id="Path_405" data-name="Path 405" d="M504.017,537.845s-1.824-.8-2.487,2.041c0,0,1.632.781,2.79-1.394Z" transform="translate(-497.84 -496.271)" fill="#0085ca"/>
    <path id="Path_406" data-name="Path 406" d="M490.881,513.206s-2.181-.631-2.741,2.309c0,0,1.744.87,3.034-1.64Z" transform="translate(-485.887 -474.469)" fill="#0085ca"/>
    <path id="Path_407" data-name="Path 407" d="M476.938,488.058s-1.731-1.549-3.648.625a3.024,3.024,0,0,0,3.718-.166Z" transform="translate(-472.63 -451.749)" fill="#0085ca"/>
    <path id="Path_408" data-name="Path 408" d="M471.687,462.841s-1.762-1.625-3.587.515a3.079,3.079,0,0,0,3.655-.074Z" transform="translate(-467.997 -429.342)" fill="#0085ca"/>
    <path id="Path_409" data-name="Path 409" d="M470.657,435.236s-1.45-2.53-3.517-.981c0,0,1.58,2.193,3.495,1.445Z" transform="translate(-467.14 -404.077)" fill="#0085ca"/>
    <path id="Path_410" data-name="Path 410" d="M470.941,409.384s-1.451-2.578-3.541-.907c0,0,1.783,2.285,3.5,1.353Z" transform="translate(-467.372 -381.168)" fill="#0085ca"/>
    <path id="Path_411" data-name="Path 411" d="M479.556,375.622s-.87-2.949-2.8-2.9c0,0,.889,3.116,2.629,3.485Z" transform="translate(-475.728 -349.969)" fill="#0085ca"/>
    <path id="Path_412" data-name="Path 412" d="M485.068,349.538s-.716-3.609-2.3-3.469c0,0,.476,2.753,2.2,4.014Z" transform="translate(-481.093 -326.334)" fill="#0085ca"/>
    <path id="Path_413" data-name="Path 413" d="M489.737,326.062s-.93-2.949-2.478-3.062c0,0,.635,2.9,2.444,3.825Z" transform="translate(-485.101 -305.884)" fill="#0085ca"/>
    <path id="Path_414" data-name="Path 414" d="M502.947,300.236s-.5-3.148-1.482-3.456c0,0-.127,2.949,1.28,3.9Z" transform="translate(-497.78 -282.638)" fill="#0085ca"/>
    <path id="Path_415" data-name="Path 415" d="M505.359,277.326s-.625-3.223-1.639-3.516c0,0,.071,2.623,1.531,3.755Z" transform="translate(-499.795 -262.273)" fill="#0085ca"/>
    <path id="Path_416" data-name="Path 416" d="M514.227,253.3s-.411-2.637-1.18-3.143c0,0-.226,3.006.909,3.733Z" transform="translate(-508.105 -241.305)" fill="#0085ca"/>
    <path id="Path_417" data-name="Path 417" d="M512.593,221.791l-1.329-4.281s-.338,3.753,1.482,5.068Z" transform="translate(-506.507 -212.358)" fill="#0085ca"/>
    <path id="Path_418" data-name="Path 418" d="M500.956,193.111a24.164,24.164,0,0,1-2.146-3s.653,3.062,3,4.244Z" transform="translate(-495.412 -188.065)" fill="#0085ca"/>
    <path id="Path_419" data-name="Path 419" d="M494.394,176.219s-2.231-3.923-3-4.139a5.267,5.267,0,0,1,3.112,4Z" transform="translate(-488.788 -172.08)" fill="#0085ca"/>
    <path id="Path_420" data-name="Path 420" d="M519.126,214.747l-.114-.017c.631-4.846.513-7.851-.333-8.46l.065-.1C519.642,206.815,519.773,209.78,519.126,214.747Z" transform="translate(-513.15 -202.304)" fill="#444053"/>
    <path id="Path_421" data-name="Path 421" d="M502.51,290.395l-.17-.033c.077-.448.164-.907.261-1.354.833-3.923,1.5-7.554,1.857-10.32l.128-.1c-.361,2.766-.983,6.526-1.818,10.453C502.674,289.5,502.586,289.949,502.51,290.395Z" transform="translate(-498.563 -266.511)" fill="#444053"/>
    <path id="Path_422" data-name="Path 422" d="M505.922,404.468a23.371,23.371,0,0,1-4.784-6.386,27.283,27.283,0,0,1-2.7-7.793,32.5,32.5,0,0,1,.1-11.048l.151.135a29.259,29.259,0,0,0,2.647,18.579,23.147,23.147,0,0,0,4.733,6.325Z" transform="translate(-494.694 -355.746)" fill="#444053"/>
  </g>
  <path id="Path_423" data-name="Path 423" d="M115.427,332.609a3.91,3.91,0,0,1-.782.247,7.445,7.445,0,0,1-1.42.142c.014.133.025.256.035.369.026.308.041.521.041.521l-.5-.036-4.15-.3-2.427-.38a4.724,4.724,0,0,0,.381.473,2.025,2.025,0,0,0,.485.4,16.036,16.036,0,0,0,2.569,1.892c.054,0,.071.057.062.146.922,0,3.788.142,2.992,1.828a1.307,1.307,0,0,1-.651.67c-.92.412-2.307-.329-3.021-.784-.07.144-.136.278-.2.392-.121.242-.206.4-.206.4l-.072-.054-3.682-2.772-.807-.724a2.679,2.679,0,0,1-.7-.128h0l-.107-.036a.221.221,0,0,0-.012.031,1.662,1.662,0,0,0-.065.272v.041q-.023.159-.03.319c0,.073-.005.15-.005.227a22.494,22.494,0,0,0,.579,4.027s1.518,4.093.98,5.038h0a.418.418,0,0,1-.107.123,1.145,1.145,0,0,0-.363.711,7.6,7.6,0,0,0,.151,2.532s-.032.057-.087.145a4.38,4.38,0,0,1-.4.567c-.023.027-.046.056-.071.082a1.9,1.9,0,0,1-.215.2c.014.044.029.09.044.138s.034.125.049.193a2.912,2.912,0,0,1-.134,1.668,4.815,4.815,0,0,0-.27,1.2h0a9.69,9.69,0,0,0,.055,2.257c-.016-.009-.03-.018-.046-.026q-1.78-.983-3.51-2.054c-.338-.206-.674-.417-1.007-.629q-.616-.392-1.226-.794-.8-.531-1.609-1.088l-.251-.177-.1-.069c-.136-.1-.27-.193-.406-.29a21.9,21.9,0,0,1-1.517-2.382c-.076-.144-.145-.281-.2-.407v-.007l-.036-.083-.151-.057h0c-.284-.105-.465-.179-.465-.179h0a5.863,5.863,0,0,0,.187-1.554,4.848,4.848,0,0,0-1.377-3.473,5.841,5.841,0,0,1-1.874-3.846v-.113a1.5,1.5,0,0,1,.006-.155l.124-.126c-.315-.067-.612-.1-.612-.1s1.079-4.128,2.9-5.506a8.923,8.923,0,0,0,2.181-2.788,42.448,42.448,0,0,1,3.249-5.034l.327-.437.1-.128.02-.026.026-.036q-.067-.107-.135-.211l-.03-.046a1.2,1.2,0,0,1-.246-.725v-.066a.921.921,0,0,1,.024-.134.129.129,0,0,0,.013.02c.153-.472.745-.68,1.18-.941a4.478,4.478,0,0,0,1.685-3.187,4.464,4.464,0,0,1,1.02-2.67c.457-.4,1.073-.531,1.535-.927a3.024,3.024,0,0,0,.652-.886c.107-.193.2-.392.3-.585a5.81,5.81,0,0,1,1.853-2.208,2.938,2.938,0,0,1,2.675-.374c.336.135.644.34.966.491a3.612,3.612,0,0,0,.614.2,10.289,10.289,0,0,1,1.961.493,5.915,5.915,0,0,1,2.247,2.495,12.091,12.091,0,0,1,1.067,2.007v-.078a3.019,3.019,0,0,1,.215,1.043,1.675,1.675,0,0,1-.046.454,1.28,1.28,0,0,1-.667.809l-.05.026a2.1,2.1,0,0,1-.208.1c-.011.062-.023.126-.035.187-.005.026-.012.053-.018.079-.014.064-.03.126-.047.188a4.392,4.392,0,0,1-1.288,2.08,4.273,4.273,0,0,1-1.44.862c-.038.014-.077.024-.115.036a1,1,0,0,1-.135.264.744.744,0,0,1-.146.149.871.871,0,0,1-.107.066.136.136,0,0,1-.029.015,1.343,1.343,0,0,1-1.288-.235c-.019-.014-.038-.03-.056-.044a1.373,1.373,0,0,1-.02.2c-.011.07-.018.113-.03.172s-.016.087-.024.129-.013.07-.019.1l-.013.058a9.2,9.2,0,0,1-1.2,3.073,4.367,4.367,0,0,1-.271.387l-.266.429v.058a5.094,5.094,0,0,1-.69,2.7,7.916,7.916,0,0,1-.477.759l.06.037a5.612,5.612,0,0,0,2.534.95,15.606,15.606,0,0,0,3.161.193c.045-.027.089.01.13.091a6.361,6.361,0,0,1,2.343-1,.924.924,0,0,1,1.143.907A1.434,1.434,0,0,1,115.427,332.609Z" transform="translate(-82.443 -283.013)" fill="url(#linear-gradient-2)"/>
  <path id="Path_424" data-name="Path 424" d="M136.906,625.975a2.611,2.611,0,0,1,.154,2.181,5.836,5.836,0,0,0-.263,2.183c-.338-.206-.674-.417-1.008-.629q-.616-.392-1.226-.794-.8-.531-1.609-1.088l-.251-.177-.1-.069a.214.214,0,0,0-.031-.045,20.731,20.731,0,0,1-1.48-2.4c-.09-.177-.168-.34-.231-.49v-.008a1,1,0,0,1-.126-.545,1.108,1.108,0,0,1,.52-.681c.618-.34,1.609-.026,2.59.474a17.761,17.761,0,0,1,2.418,1.557l.087.067.009.007c.322.242.509.4.509.4A.554.554,0,0,1,136.906,625.975Z" transform="translate(-119.428 -560.785)" fill="#fbbebe"/>
  <path id="Path_425" data-name="Path 425" d="M135.431,624.654a2.611,2.611,0,0,1,.154,2.183,5.838,5.838,0,0,0-.263,2.184q-.506-.312-1.008-.63-.617-.392-1.226-.794c-.536-.355-1.073-.718-1.6-1.089l-.251-.177-.1-.069a.244.244,0,0,0-.031-.045,20.527,20.527,0,0,1-1.48-2.4c-.09-.177-.168-.34-.231-.49v-.007a1,1,0,0,1-.126-.547,1.111,1.111,0,0,1,.52-.68c.618-.34,1.609-.026,2.59.474a17.752,17.752,0,0,1,2.418,1.557l.087.067.009.007c.322.242.509.4.509.4S135.412,624.621,135.431,624.654Z" transform="translate(-118.116 -559.614)" opacity="0.05"/>
  <path id="Path_426" data-name="Path 426" d="M162.947,631.4a2.9,2.9,0,0,1-.151.567,4.689,4.689,0,0,0-.244,1.021h0a9.525,9.525,0,0,0,.009,2.231q-1.78-.983-3.51-2.054c-.338-.206-.674-.417-1.008-.629a3.418,3.418,0,0,0-.3-1.265,22.751,22.751,0,0,1-1.629-2.628c-.073-.136-.136-.268-.2-.392v-.006c-.023-.05-.044-.1-.064-.145a1.354,1.354,0,0,1-.183-.709,1.312,1.312,0,0,1,.442-.674c.952-.735,2.93.26,4.45,1.248l.038.024c.288.189.56.376.8.551l.143.1c.629.454,1.046.806,1.046.806a2.474,2.474,0,0,1,.248.542,2.986,2.986,0,0,1,.089.329A2.9,2.9,0,0,1,162.947,631.4Z" transform="translate(-141.681 -563.615)" fill="#fbbebe"/>
  <path id="Path_427" data-name="Path 427" d="M131.093,625.106a10.194,10.194,0,0,0,2.558.68,1.142,1.142,0,0,0,.194-.01h0a21.225,21.225,0,0,1,3.048.158c.5.046.982.1,1.38.138l1,.113v-.408c-.278-.2-.6-.426-.946-.653-1.525-1-3.528-2.013-4.487-1.272-1.351-.69-2.722-1.021-3.112.206A2.291,2.291,0,0,0,131.093,625.106Z" transform="translate(-119.419 -560.75)" opacity="0.1"/>
  <path id="Path_428" data-name="Path 428" d="M99.243,545.724a5.854,5.854,0,0,0,1.791,3.8,5.485,5.485,0,0,1,1.136,4.976,14.971,14.971,0,0,0,3.379,1.006,1.129,1.129,0,0,0,.194-.01,34.885,34.885,0,0,1,4.432.3l1,.114v-8.678l-10.938-2.808-.99,1.043A2.152,2.152,0,0,0,99.243,545.724Z" transform="translate(-91.317 -490.872)" fill="#5c5c8e"/>
  <path id="Path_429" data-name="Path 429" d="M135.46,630.91" transform="translate(-123.65 -567.554)" fill="none"/>
  <g id="Group_277" data-name="Group 277" transform="translate(7.924 53.553)" opacity="0.1">
    <path id="Path_430" data-name="Path 430" d="M172.512,642.282l.179.019v.093l-1-.113c-1-.107-2.531-.259-3.541-.3A38.412,38.412,0,0,1,172.512,642.282Z" transform="translate(-160.756 -630.909)"/>
    <path id="Path_431" data-name="Path 431" d="M99.246,545.513l.99-1.043.661.169-.825.874a2.164,2.164,0,0,0,0,.261,5.856,5.856,0,0,0,1.791,3.8A5.483,5.483,0,0,1,103,554.55a17.933,17.933,0,0,0,3.072.978,2.49,2.49,0,0,0-.322.019,1.161,1.161,0,0,1-.194.01,15.021,15.021,0,0,1-3.379-1.007,5.483,5.483,0,0,0-1.136-4.975,5.839,5.839,0,0,1-1.8-3.8A2.163,2.163,0,0,1,99.246,545.513Z" transform="translate(-99.24 -544.47)"/>
  </g>
  <path id="Path_432" data-name="Path 432" d="M303,492.864s3.308-2.425,3.549-.243S303,494.5,303,494.5Z" transform="translate(-273.214 -444.141)" fill="#fbbebe"/>
  <path id="Path_433" data-name="Path 433" d="M229.763,487.7s1.789,1.247,2.779,1.174a14.4,14.4,0,0,0,3.018.192c.314-.192.508,2.769.508,2.769l-4.443-.332-2.85-.459s-1.425-.919-1.425-1.71S229.763,487.7,229.763,487.7Z" transform="translate(-205.681 -440.585)" fill="#f7cddd"/>
  <path id="Path_434" data-name="Path 434" d="M229.763,487.7s1.789,1.247,2.779,1.174a14.4,14.4,0,0,0,3.018.192c.314-.192.508,2.769.508,2.769l-4.443-.332-2.85-.459s-1.425-.919-1.425-1.71S229.763,487.7,229.763,487.7Z" transform="translate(-205.681 -440.585)" fill="#0085ca"/>
  <path id="Path_435" data-name="Path 435" d="M267.4,543.309s4.023-.176,3.121,1.8-3.949-.424-3.949-.424Z" transform="translate(-240.692 -489.884)" fill="#fbbebe"/>
  <path id="Path_436" data-name="Path 436" d="M236.58,453.927s3.26-2.578,2.8-5.717-2.8,2.4-2.8,2.4Z" transform="translate(-213.92 -404.72)" fill="#5c5c8e"/>
  <path id="Path_437" data-name="Path 437" d="M245,346.583a4.489,4.489,0,0,0,1.159,3.026,4.141,4.141,0,0,0,1.416,1.01,3.569,3.569,0,0,0,.53.186,3.979,3.979,0,0,0,.585.113,4.129,4.129,0,0,0,.429.023,3.864,3.864,0,0,0,1.353-.248,4.4,4.4,0,0,0,2.666-5.078,4.147,4.147,0,0,0-4.479-3.364A4.276,4.276,0,0,0,245,346.583Z" transform="translate(-221.437 -311.607)" fill="#fbbebe"/>
  <path id="Path_438" data-name="Path 438" d="M99.243,545.724c.369.071.825.2.825.4,0,.34,5.15,2.179,5.15,2.179s-.193.475.322,1.293,4.7,5.513,4.7,5.513l-.014.138-.054.541-.255,2.587a8.09,8.09,0,0,1,2.124-.544.685.685,0,0,0,.514-.254,2.694,2.694,0,0,0-.336-.87s-.417-.347-1.047-.806v-8.677l-10.938-2.808-.99,1.043A2.152,2.152,0,0,0,99.243,545.724Z" transform="translate(-91.317 -490.872)" opacity="0.1"/>
  <path id="Path_439" data-name="Path 439" d="M94.94,412.911s1.288.135,1.288.476,5.15,2.179,5.15,2.179-.193.475.322,1.293,4.7,5.513,4.7,5.513l-.322,3.266a8.089,8.089,0,0,1,2.124-.544c.231.031.485-.2.7-.454a4.763,4.763,0,0,0,.465-.7s-.58-2.588.193-3.2-.837-5.1-.837-5.1a18.339,18.339,0,0,1-.514-4.564,1.746,1.746,0,0,1,.062-.269.085.085,0,0,1,.01-.031c.459-1.309,5.4-12.288,5.4-12.288a8.248,8.248,0,0,0-.062-.931c-.01-.086-.023-.176-.039-.265a4.786,4.786,0,0,0-.1-.484c-.028-.1-.058-.2-.093-.3-.152-.415-.386-.734-.736-.742a2.1,2.1,0,0,0-1.288-.574,5.378,5.378,0,0,0-2.9.574,17.336,17.336,0,0,1-3.734,1.429l-1.521,2.106-.313.433a41.949,41.949,0,0,0-3.1,4.978,8.825,8.825,0,0,1-2.083,2.757C95.971,408.828,94.94,412.911,94.94,412.911Z" transform="translate(-87.478 -358.538)" fill="#0085ca"/>
  <path id="Path_440" data-name="Path 440" d="M150.495,482.3s-4.3,1.123-5.965,3.956Z" transform="translate(-131.747 -435.797)" opacity="0.1"/>
  <path id="Path_441" data-name="Path 441" d="M182.528,526.18s-.812,5.768-.587,6.2S182.528,526.18,182.528,526.18Z" transform="translate(-165.109 -474.701)" opacity="0.1"/>
  <path id="Path_442" data-name="Path 442" d="M189.594,540.942c.313.433,1.583,3.778,1.583,3.778l-.367,5.615-.322,3.266a8.088,8.088,0,0,1,2.126-.544c.23.031.485-.194.7-.454-.335-1.913-1.049-5.915-1.18-5.992a19.567,19.567,0,0,1-1.086-4.212,10.356,10.356,0,0,0-1.256-2.908S189.28,540.508,189.594,540.942Z" transform="translate(-171.884 -486.501)" opacity="0.1"/>
  <path id="Path_443" data-name="Path 443" d="M201.609,419.407c.078.255.2,1.735.2,1.735a1.95,1.95,0,0,0,1.6,1.868,1.744,1.744,0,0,1,.062-.269c.386-1.156,5.409-12.318,5.409-12.318a7.722,7.722,0,0,0-.2-1.681,6.077,6.077,0,0,0-2.825.184c-.5-.069-2.132,3.361-2.132,3.361s-1.088,2.628-1.207,2.985a6.807,6.807,0,0,0-.048,1.15c-.048.2-.557.381-.629.663s-.025.84-.073.942A4.324,4.324,0,0,0,201.609,419.407Z" transform="translate(-182.683 -370.48)" opacity="0.1"/>
  <path id="Path_444" data-name="Path 444" d="M205.215,417.616c.079.255.2,1.735.2,1.735a1.907,1.907,0,0,0,1.288,1.773,2.587,2.587,0,0,0,.773.163l.777.712,3.585,2.8s1.337-2.608.974-2.625a15.342,15.342,0,0,1-2.454-1.871,5.688,5.688,0,0,1-1.578-2.186,1.853,1.853,0,0,0,.039-.227c.13-1.156,2.834-5.58,2.834-5.58a8.6,8.6,0,0,0,1.453-3.711c.012-.054.019-.113.029-.169a1.948,1.948,0,0,0,.021-.227c.048-.927-.589-1.263-1.347-1.344h0a5.159,5.159,0,0,0-1.18.039,8.1,8.1,0,0,0-1.159.24c-.322-.044-1.122,1.379-1.646,2.387h0c-.282.547-.485.974-.485.974s-1.093,2.629-1.216,2.986a6.481,6.481,0,0,0-.048,1.15c-.048.205-.557.381-.628.663s-.026.84-.074.942A4.386,4.386,0,0,0,205.215,417.616Z" transform="translate(-185.903 -368.893)" fill="#0085ca"/>
  <path id="Path_445" data-name="Path 445" d="M166.61,354.463a2.359,2.359,0,0,0,2.676.366,17.68,17.68,0,0,0,2.461-1.588c.536-.34,1.1-.627,1.624-.982h0c.077-.053.152-.107.225-.161.607-.454,1.132-1.035,1.76-1.452a2.638,2.638,0,0,1,1.414-.479,1.529,1.529,0,0,1,.675.15.848.848,0,0,1,.107.059,2.951,2.951,0,0,1,.569.454c.177.169.348.349.537.506.012-.054.019-.113.029-.169a1.944,1.944,0,0,0,.021-.227,4.147,4.147,0,0,0,.429.023,3.864,3.864,0,0,0,1.355-.254.332.332,0,0,1,.01-.056,3.486,3.486,0,0,1,1.086-2.248,7.582,7.582,0,0,1,1.507-.607,4.479,4.479,0,0,0-1.707-4.848,3.945,3.945,0,0,0-4.886.3,4.519,4.519,0,0,0-1.17,5.023,5.378,5.378,0,0,0-2.9.574,17.334,17.334,0,0,1-3.734,1.429l-1.513,2.109a1.856,1.856,0,0,1,.367.837C167.59,353.794,167.066,354.19,166.61,354.463Z" transform="translate(-151.458 -311.624)" opacity="0.1"/>
  <path id="Path_446" data-name="Path 446" d="M181.6,324.479a3.5,3.5,0,0,0-1.086,2.247,1.833,1.833,0,0,1-.249.762c-.347.475-1.044.34-1.5,0a8.955,8.955,0,0,0-1.314-1.1,2.166,2.166,0,0,0-2.088.33c-.628.416-1.153,1-1.761,1.451-.587.438-1.241.75-1.853,1.143a17.242,17.242,0,0,1-2.46,1.588,2.359,2.359,0,0,1-2.675-.365c.456-.268.98-.663.944-1.236s-.667-1-.624-1.588.7-.819,1.165-1.107a4.5,4.5,0,0,0,1.609-3.153,4.5,4.5,0,0,1,.974-2.639c.436-.4,1.027-.525,1.466-.916a4.82,4.82,0,0,0,.91-1.454,5.7,5.7,0,0,1,1.768-2.185,2.726,2.726,0,0,1,2.556-.369c.322.133.609.34.925.484.783.358,1.681.311,2.458.687a5.8,5.8,0,0,1,2.146,2.468c.486.834,1.437,2.309,1.171,3.386C183.816,324.013,182.312,323.954,181.6,324.479Z" transform="translate(-151.467 -288.104)" fill="#7c5c5c"/>
  <g id="Group_278" data-name="Group 278" transform="translate(15.149 33.324)" opacity="0.1">
    <path id="Path_447" data-name="Path 447" d="M169.583,419.833a.744.744,0,0,1,.023-.133,2.088,2.088,0,0,1,.409.907.827.827,0,0,1-.018.233A1.828,1.828,0,0,1,169.583,419.833Z" transform="translate(-169.259 -413.621)"/>
    <path id="Path_448" data-name="Path 448" d="M169.066,374.686a17.648,17.648,0,0,0,2.46-1.588c.612-.394,1.266-.705,1.853-1.143.607-.454,1.133-1.035,1.761-1.451a2.169,2.169,0,0,1,2.088-.33,8.777,8.777,0,0,1,1.314,1.1c.456.346,1.15.481,1.5.006a1.813,1.813,0,0,0,.249-.761,3.489,3.489,0,0,1,1.086-2.248c.71-.524,2.214-.465,2.486-1.571a1.8,1.8,0,0,0,.035-.6,2.539,2.539,0,0,1,.159,1.416c-.274,1.106-1.777,1.047-2.487,1.571a3.51,3.51,0,0,0-1.086,2.248,1.823,1.823,0,0,1-.248.761c-.348.475-1.045.34-1.5-.006a8.83,8.83,0,0,0-1.314-1.1,2.169,2.169,0,0,0-2.088.33c-.628.415-1.153,1-1.761,1.45-.587.439-1.241.75-1.853,1.143a17.143,17.143,0,0,1-2.46,1.588,2.359,2.359,0,0,1-2.675-.366,3.329,3.329,0,0,0,.5-.349A2.716,2.716,0,0,0,169.066,374.686Z" transform="translate(-166.58 -366.1)"/>
  </g>
  <path id="Path_449" data-name="Path 449" d="M379.62,301.28l-4.4-4.676a2.248,2.248,0,0,0-3.318-.024l-27.624,28.951L332.6,313.089a2.242,2.242,0,0,0-3.294-.025l-4.446,4.65a2.6,2.6,0,0,0-.023,3.507l17.738,18.9a2.271,2.271,0,0,0,3.318.025l33.7-35.356a2.569,2.569,0,0,0,.025-3.506Z" transform="translate(-292.109 -270.503)" fill="#3acc6c"/>
  <g id="Group_279" data-name="Group 279" transform="translate(77.954 68.267)" opacity="0.5">
    <path id="Path_450" data-name="Path 450" d="M754.857,674.215s-3.281-.209-2.9,2.222a.6.6,0,0,0,.292.624s0-.18.336-.119a1.407,1.407,0,0,0,.357.018.716.716,0,0,0,.436-.189h0a2.734,2.734,0,0,0,1.281-2s.265-.347.254-.437l-.554.251a1.1,1.1,0,0,1,.041.772s-.018-.758-.125-.739c-.021,0-.287.146-.287.146a1.839,1.839,0,0,1,.079,1.27s.093-.907-.181-1.217l-.39.24a1.912,1.912,0,0,1,.122,1.379,2.71,2.71,0,0,0-.2-1.32l-.353.29a1.868,1.868,0,0,1,.139,1.263s-.028-1.107-.214-1.191a2.213,2.213,0,0,0-.356.407s.245.543.093.83c0,0-.093-.738-.169-.741a2.513,2.513,0,0,0-.34.822,1.842,1.842,0,0,1,.265-.87.914.914,0,0,0-.471.259s.047-.34.547-.376a2.256,2.256,0,0,1,.322-.393,1.912,1.912,0,0,0-.8.1.862.862,0,0,1,.888-.178l.349-.3a2.723,2.723,0,0,0-.931.009,1.087,1.087,0,0,1,1.026-.078l.38-.239a3.277,3.277,0,0,0-.891-.082,1.3,1.3,0,0,1,1,.017l.272-.129s-.409-.085-.529-.1-.125-.049-.125-.049a1.349,1.349,0,0,1,.767.091A3.369,3.369,0,0,0,754.857,674.215Z" transform="translate(-751.929 -674.21)" fill="#0085ca"/>
  </g>
  <g id="Group_280" data-name="Group 280" transform="translate(74.396 51.295)" opacity="0.5">
    <path id="Path_451" data-name="Path 451" d="M719.366,524.563s-1.666,3,.559,3.735a.538.538,0,0,0,.659.009s-.149-.087.052-.371a1.651,1.651,0,0,0,.178-.328.835.835,0,0,0,.038-.5h0a2.82,2.82,0,0,0-1.1-2.113s-.173-.408-.252-.439l-.041.635a.966.966,0,0,1,.67.313s-.644-.327-.68-.219c-.006.023-.008.34-.008.34a1.589,1.589,0,0,1,1.107.5s-.721-.5-1.108-.381l.026.476a1.666,1.666,0,0,1,1.219.51s-.771-.494-1.206-.407l.085.465a1.61,1.61,0,0,1,1.128.441s-.945-.475-1.1-.34a2.691,2.691,0,0,0,.18.521s.57.016.742.289c0,0-.664-.247-.7-.177a2.481,2.481,0,0,0,.536.694,1.729,1.729,0,0,1-.613-.645,1.032,1.032,0,0,0,0,.567s-.269-.2-.068-.68a2.333,2.333,0,0,1-.186-.482,2.225,2.225,0,0,0-.28.794.989.989,0,0,1,.253-.919l-.094-.465a3.143,3.143,0,0,0-.415.882,1.241,1.241,0,0,1,.4-1l-.03-.466a3.645,3.645,0,0,0-.472.8,1.479,1.479,0,0,1,.468-.936l.015-.314s-.257.347-.322.454-.1.1-.1.1a1.5,1.5,0,0,1,.424-.681A4,4,0,0,0,719.366,524.563Z" transform="translate(-718.766 -524.56)" fill="#0085ca"/>
  </g>
  <g id="Group_281" data-name="Group 281" transform="translate(63.975 27.4)" opacity="0.5">
    <path id="Path_452" data-name="Path 452" d="M622.239,313.862s-1.665,3,.559,3.734a.536.536,0,0,0,.659.009s-.149-.087.052-.371a1.643,1.643,0,0,0,.177-.328.828.828,0,0,0,.038-.5h0a2.816,2.816,0,0,0-1.1-2.113s-.173-.407-.252-.438l-.041.634a.964.964,0,0,1,.67.313s-.644-.327-.679-.219c-.008.023-.008.34-.008.34a1.587,1.587,0,0,1,1.106.5s-.721-.5-1.108-.381l.027.476a1.664,1.664,0,0,1,1.218.51s-.771-.493-1.206-.407l.085.465a1.611,1.611,0,0,1,1.129.442s-.946-.476-1.1-.34a2.628,2.628,0,0,0,.181.519s.569.016.741.289c0,0-.664-.247-.7-.177a2.445,2.445,0,0,0,.536.694,1.732,1.732,0,0,1-.614-.644,1.038,1.038,0,0,0,0,.56s-.269-.2-.068-.686a2.331,2.331,0,0,1-.186-.482,2.225,2.225,0,0,0-.28.794.988.988,0,0,1,.254-.919l-.1-.465a3.115,3.115,0,0,0-.414.882,1.237,1.237,0,0,1,.4-1l-.03-.466a3.651,3.651,0,0,0-.472.8,1.476,1.476,0,0,1,.468-.934l.015-.315s-.257.347-.322.454-.1.1-.1.1a1.508,1.508,0,0,1,.429-.68A3.826,3.826,0,0,0,622.239,313.862Z" transform="translate(-621.641 -313.86)" fill="#0085ca"/>
  </g>
  <g id="Group_282" data-name="Group 282" transform="translate(25.198 4.71)" opacity="0.5">
    <path id="Path_453" data-name="Path 453" d="M263.733,113.79s-6.2,4.763-2.1,8.536a1.3,1.3,0,0,0,1.4.668s-.243-.333.439-.742a3.516,3.516,0,0,0,.667-.526,1.859,1.859,0,0,0,.518-1.021h0s1.1-2.171-.493-5.6a3.8,3.8,0,0,0-.155-1.186l-.644,1.318a2.387,2.387,0,0,1,1.157,1.329s-1.1-1.337-1.262-1.134c-.033.04-.313.714-.313.714a3.928,3.928,0,0,1,1.926,2.162s-1.1-1.778-2.039-1.908l-.364,1.045a4.116,4.116,0,0,1,2.156,2.292s-1.215-1.815-2.221-2.058l-.228,1.079s1.693.788,2.023,2.055c0,0-1.609-1.948-2.059-1.8a5.639,5.639,0,0,0-.072,1.289s1.2.6,1.333,1.35c0,0-1.2-1.182-1.344-1.068a5.977,5.977,0,0,0,.543,2.015,4.268,4.268,0,0,1-.744-1.982,2.354,2.354,0,0,0-.486,1.2s-.4-.7.458-1.534a5.581,5.581,0,0,1,.03-1.213,4.867,4.867,0,0,0-1.3,1.426,2.207,2.207,0,0,1,1.352-1.714l.206-1.088a6.832,6.832,0,0,0-1.663,1.474s.171-1.021,1.736-1.749l.348-1.026a8.1,8.1,0,0,0-1.717,1.247,3.259,3.259,0,0,1,1.824-1.539l.308-.658s-.858.488-1.089.651-.3.113-.3.113a3.29,3.29,0,0,1,1.509-1.04A8.8,8.8,0,0,0,263.733,113.79Z" transform="translate(-260.232 -113.79)" fill="#0085ca"/>
  </g>
  <g id="Group_283" data-name="Group 283" transform="translate(13.409 19.442)" opacity="0.5">
    <path id="Path_454" data-name="Path 454" d="M159.628,244.671s-8.023-3.566-9.074,2.864a1.637,1.637,0,0,0,.215,1.83s.164-.445.94.015a3.868,3.868,0,0,0,.876.376,1.87,1.87,0,0,0,1.247-.07h0s2.637-.151,4.857-3.8c0,0,.951-.621,1-.855l-1.591.113a2.913,2.913,0,0,1-.536,1.969s.585-1.91.3-1.963c-.057-.011-.84.1-.84.1a4.772,4.772,0,0,1-.858,3.247s.985-2.176.556-3.208l-1.173.239a5.027,5.027,0,0,1-.839,3.56s.954-2.314.586-3.488l-1.125.4s.271,2.2-.7,3.289c0,0,.848-2.791.449-3.175a5.768,5.768,0,0,0-1.227.68s.161,1.588-.457,2.16c0,0,.38-1.928.192-2.007a6.347,6.347,0,0,0-1.533,1.741,4.719,4.719,0,0,1,1.385-1.928,2.338,2.338,0,0,0-1.395.208s.407-.818,1.679-.43a5.458,5.458,0,0,1,1.132-.68,5.177,5.177,0,0,0-2.074-.5,2.269,2.269,0,0,1,2.368.38l1.119-.429a7.361,7.361,0,0,0-2.335-.839s1.036-.424,2.627.755l1.148-.251a8.873,8.873,0,0,0-2.157-1.026,3.478,3.478,0,0,1,2.487.97l.785-.069s-.951-.592-1.238-.736-.275-.237-.275-.237a3.665,3.665,0,0,1,1.842.937A8.616,8.616,0,0,0,159.628,244.671Z" transform="translate(-150.363 -243.685)" fill="#0085ca"/>
  </g>
  <g id="Group_284" data-name="Group 284" transform="translate(10.078 6.827)" opacity="0.5">
    <path id="Path_455" data-name="Path 455" d="M127.111,137.054s-2.844-6.949-6.933-3.762a1.267,1.267,0,0,0-.858,1.213s.337-.166.549.575a3.622,3.622,0,0,0,.322.75,1.645,1.645,0,0,0,.779.709h0s1.648,1.5,4.936.668c0,0,.9.2,1.055.094l-1.005-.893a2.149,2.149,0,0,1-1.382.844s1.377-.783,1.238-.983c-.028-.041-.552-.447-.552-.447a3.558,3.558,0,0,1-2.253,1.414s1.759-.7,2.059-1.571l-.826-.567a3.805,3.805,0,0,1-2.431,1.615s1.813-.8,2.229-1.72l-.883-.434s-1.026,1.474-2.186,1.53c0,0,2.008-1.148,1.976-1.616a4.475,4.475,0,0,0-1.1-.331s-.759,1.038-1.436,1.008c0,0,1.265-.917,1.2-1.077a4.76,4.76,0,0,0-1.849.113,3.492,3.492,0,0,1,1.862-.311,2.029,2.029,0,0,0-.939-.714s.683-.242,1.23.754a4.465,4.465,0,0,1,1.041.277,4.681,4.681,0,0,0-.966-1.545s.858.227,1.2,1.652l.9.421a6.752,6.752,0,0,0-.935-1.9s.844.372,1.153,2.03l.814.543a8.232,8.232,0,0,0-.726-1.909,3.193,3.193,0,0,1,.955,2.074l.5.431s-.247-.923-.34-1.182-.034-.306-.034-.306a3.375,3.375,0,0,1,.589,1.665A7.456,7.456,0,0,0,127.111,137.054Z" transform="translate(-119.32 -132.456)" fill="#0085ca"/>
  </g>
  <g id="Group_285" data-name="Group 285" transform="translate(70.024 12.476)" opacity="0.5">
    <path id="Path_456" data-name="Path 456" d="M681.3,184.832s-.671-3.4-2.79-2.369a.572.572,0,0,0-.494.462s.166-.042.2.312a1.7,1.7,0,0,0,.076.369.789.789,0,0,0,.289.395h0a2.538,2.538,0,0,0,2.158.783s.387.179.467.145l-.374-.5a.961.961,0,0,1-.694.244s.687-.217.644-.321c-.01-.022-.209-.255-.209-.255a1.59,1.59,0,0,1-1.138.415s.851-.143,1.063-.5l-.322-.335a1.676,1.676,0,0,1-1.228.487s.885-.181,1.152-.555l-.358-.284s-.59.56-1.117.473c0,0,1-.32,1.03-.533a2.1,2.1,0,0,0-.465-.256s-.429.392-.733.313c0,0,.644-.288.632-.367a2.2,2.2,0,0,0-.841-.13,1.6,1.6,0,0,1,.864.042.955.955,0,0,0-.359-.413s.328-.042.487.454a2.056,2.056,0,0,1,.443.227,2.262,2.262,0,0,0-.3-.794.959.959,0,0,1,.4.861l.366.277a3.178,3.178,0,0,0-.253-.948,1.225,1.225,0,0,1,.34,1.021l.322.324a3.826,3.826,0,0,0-.159-.929,1.492,1.492,0,0,1,.247,1.021l.189.244s-.029-.439-.048-.567.011-.142.011-.142a1.576,1.576,0,0,1,.119.808A3.793,3.793,0,0,0,681.3,184.832Z" transform="translate(-678.02 -182.268)" fill="#0085ca"/>
  </g>
  <g id="Group_286" data-name="Group 286" transform="translate(58.476 75.545)" opacity="0.5">
    <path id="Path_457" data-name="Path 457" d="M573.674,740.952s-.67-3.4-2.79-2.369a.573.573,0,0,0-.495.462s.166-.042.2.312a1.642,1.642,0,0,0,.077.369.79.79,0,0,0,.288.395h0a2.539,2.539,0,0,0,2.159.783s.387.179.466.145l-.373-.5a.962.962,0,0,1-.7.244s.687-.216.644-.321c-.009-.022-.209-.255-.209-.255a1.589,1.589,0,0,1-1.138.415s.852-.143,1.063-.5l-.322-.34a1.645,1.645,0,0,1-1.223.485s.885-.181,1.152-.555l-.358-.283s-.589.56-1.116.473c0,0,1-.319,1.03-.533a2.125,2.125,0,0,0-.465-.256s-.429.392-.734.313c0,0,.644-.288.632-.367a2.2,2.2,0,0,0-.841-.131,1.6,1.6,0,0,1,.865.042.963.963,0,0,0-.359-.413s.327-.042.486.454a2.059,2.059,0,0,1,.444.227,2.26,2.26,0,0,0-.3-.794s.367.185.395.861l.367.277a3.186,3.186,0,0,0-.255-.948,1.223,1.223,0,0,1,.341,1.021l.322.324a3.794,3.794,0,0,0-.16-.929,1.489,1.489,0,0,1,.248,1.021l.189.244s-.03-.439-.049-.567.011-.141.011-.141a1.569,1.569,0,0,1,.119.806A4.251,4.251,0,0,0,573.674,740.952Z" transform="translate(-570.39 -738.388)" fill="#0085ca"/>
  </g>
</svg>
